<svg width="300" height="300" viewBox="0 0 300 300" fill="none" xmlns="http://www.w3.org/2000/svg">
<line y1="-1.5" x2="124.412" y2="-1.5" transform="matrix(0.0544606 0.998516 -0.997861 0.0653647 96.7384 51.1802)" stroke="#56C3F1" stroke-width="3"/>
<line y1="-1.5" x2="94.8144" y2="-1.5" transform="matrix(-0.56292 0.826511 -0.774033 -0.633145 96.7384 43.8687)" stroke="#56C3F1" stroke-width="3"/>
<line y1="-1.5" x2="112.097" y2="-1.5" transform="matrix(-0.997448 0.0713919 -0.0663054 -0.997799 165.794 248.095)" stroke="#56C3F1" stroke-width="3"/>
<line y1="-1.5" x2="111.483" y2="-1.5" transform="matrix(-0.179533 0.983752 -0.976812 -0.214098 183.469 135.262)" stroke="#56C3F1" stroke-width="3"/>
<line y1="-1.5" x2="105.447" y2="-1.5" transform="matrix(-0.854146 -0.520034 0.452157 -0.891938 273.536 106.016)" stroke="#56C3F1" stroke-width="3"/>
<line y1="-1.5" x2="80.4988" y2="-1.5" transform="matrix(0.0414411 0.999141 -0.998762 0.0497521 180.133 54.8359)" stroke="#56C3F1" stroke-width="3"/>
<line y1="-1.5" x2="89.5939" y2="-1.5" transform="matrix(-0.975469 0.220139 -0.184673 -0.9828 274.201 109.672)" stroke="#56C3F1" stroke-width="3"/>
<line y1="-1.5" x2="86.2457" y2="-1.5" transform="matrix(-0.73488 -0.678197 0.609303 -0.792937 106.746 179.13)" stroke="#56C3F1" stroke-width="3"/>
<line y1="-1.5" x2="93.6134" y2="-1.5" transform="matrix(-0.569217 0.822188 -0.801654 -0.597788 103.41 179.13)" stroke="#56C3F1" stroke-width="3"/>
<line y1="-1.5" x2="135.628" y2="-1.5" transform="matrix(0.0498294 0.998758 -0.998559 0.0536602 43.3655 120.639)" stroke="#56C3F1" stroke-width="3"/>
<line y1="-1.5" x2="98.8434" y2="-1.5" transform="matrix(-0.998853 0.0478877 -0.0444672 -0.999011 262.186 240.092)" stroke="#56C3F1" stroke-width="3"/>
<line y1="-1.5" x2="87.302" y2="-1.5" transform="matrix(-0.998053 -0.0623763 0.0519677 -0.998649 183.686 51.7773)" stroke="#56C3F1" stroke-width="3"/>
<line y1="-1.5" x2="71.9487" y2="-1.5" transform="matrix(-0.49555 -0.86858 0.85199 -0.523558 51.0769 250.565)" stroke="#56C3F1" stroke-width="3"/>
<line y1="-1.5" x2="69.019" y2="-1.5" transform="matrix(-0.434986 0.900437 -0.864962 -0.501838 43.3655 124.294)" stroke="#56C3F1" stroke-width="3"/>
<line y1="-1.5" x2="76.5221" y2="-1.5" transform="matrix(-0.697484 0.716601 -0.650053 -0.759889 273.536 109.672)" stroke="#56C3F1" stroke-width="3"/>
<line y1="-1.5" x2="46.9229" y2="-1.5" transform="matrix(-0.782004 -0.623273 0.552946 -0.833217 220.163 164.507)" stroke="#56C3F1" stroke-width="3"/>
<line y1="-1.5" x2="48.5667" y2="-1.5" transform="matrix(-0.206056 -0.97854 0.969477 -0.245182 230.171 212.032)" stroke="#56C3F1" stroke-width="3"/>
<line y1="-1.5" x2="64.6158" y2="-1.5" transform="matrix(-0.79114 0.611636 -0.583112 -0.812392 166.79 248.589)" stroke="#56C3F1" stroke-width="3"/>
<line y1="-1.5" x2="67.7521" y2="-1.5" transform="matrix(-0.910536 -0.41343 0.388448 -0.921471 115.67 288.111)" stroke="#56C3F1" stroke-width="3"/>
<line y1="-1.5" x2="41.4395" y2="-1.5" transform="matrix(-0.241495 -0.970402 0.95812 -0.286366 116.753 223)" stroke="#56C3F1" stroke-width="3"/>
<line y1="-1.5" x2="81.8056" y2="-1.5" transform="matrix(-0.44855 0.893758 -0.856453 -0.516225 140.104 106.016)" stroke="#56C3F1" stroke-width="3"/>
<line y1="-1.5" x2="109.439" y2="-1.5" transform="matrix(-0.640098 0.768293 -0.706892 -0.707322 183.469 138.917)" stroke="#56C3F1" stroke-width="3"/>
<line y1="-1.5" x2="60.8029" y2="-1.5" transform="matrix(-0.932664 -0.360745 0.30655 -0.951855 166.79 244.933)" stroke="#56C3F1" stroke-width="3"/>
<line y1="-1.5" x2="67.3421" y2="-1.5" transform="matrix(-0.449033 -0.893515 0.879431 -0.476026 273.753 104.04)" stroke="#56C3F1" stroke-width="3"/>
<line y1="-1.5" x2="63.4871" y2="-1.5" transform="matrix(-0.998341 0.0575836 -0.0479706 -0.998849 243.514 47.5244)" stroke="#56C3F1" stroke-width="3"/>
<line y1="-1.5" x2="58.4752" y2="-1.5" transform="matrix(-0.744794 0.667294 -0.597944 -0.801538 140.104 7.31128)" stroke="#56C3F1" stroke-width="3"/>
<line y1="-1.5" x2="59.1409" y2="-1.5" transform="matrix(-0.733257 -0.679951 0.611139 -0.791523 183.469 51.1802)" stroke="#56C3F1" stroke-width="3"/>
<line y1="-1.5" x2="62.9749" y2="-1.5" transform="matrix(-0.582674 0.812706 -0.757785 -0.652504 180.133 54.8359)" stroke="#56C3F1" stroke-width="3"/>
<line y1="-1.5" x2="68.1153" y2="-1.5" transform="matrix(-0.639386 -0.768886 0.707557 -0.706656 140.104 98.7046)" stroke="#56C3F1" stroke-width="3"/>
<line y1="-1.5" x2="52.3057" y2="-1.5" transform="matrix(-0.829079 -0.559132 0.489619 -0.871937 183.469 131.606)" stroke="#56C3F1" stroke-width="3"/>
<line y1="-1.5" x2="90.5228" y2="-1.5" transform="matrix(-0.589607 0.80769 -0.751934 -0.659239 220.163 168.163)" stroke="#56C3F1" stroke-width="3"/>
<line y1="-1.5" x2="59.3872" y2="-1.5" transform="matrix(-0.674046 -0.73869 0.674046 -0.73869 200.148 285.146)" stroke="#56C3F1" stroke-width="3"/>
<line y1="-1.5" x2="79.199" y2="-1.5" transform="matrix(-0.825428 0.564507 -0.536024 -0.844203 262.186 244.094)" stroke="#56C3F1" stroke-width="3"/>
<line y1="-1.5" x2="84.4781" y2="-1.5" transform="matrix(-0.999967 -0.00818658 0.00760067 -0.999971 200.148 288.802)" stroke="#56C3F1" stroke-width="3"/>
<line y1="-1.5" x2="103.415" y2="-1.5" transform="matrix(-0.935435 -0.353499 0.300144 -0.953894 240.178 43.8687)" stroke="#56C3F1" stroke-width="3"/>
<line x1="43.3655" y1="122.139" x2="10.0075" y2="122.139" stroke="#56C3F1" stroke-width="3"/>
<line y1="-1.5" x2="66.5596" y2="-1.5" transform="matrix(-0.150353 -0.988632 0.983725 -0.179679 16.6791 186.442)" stroke="#56C3F1" stroke-width="3"/>
<line y1="-1.5" x2="77.0222" y2="-1.5" transform="matrix(-0.519716 0.854339 -0.807455 -0.589929 46.7012 54.8359)" stroke="#56C3F1" stroke-width="3"/>
<line y1="-1.5" x2="47.2702" y2="-1.5" transform="matrix(-0.987966 0.154674 -0.129262 -0.99161 96.7384 43.8687)" stroke="#56C3F1" stroke-width="3"/>
<line y1="-1.5" x2="73.1905" y2="-1.5" transform="matrix(0.045577 -0.998961 0.998502 0.0547131 46.7012 124.294)" stroke="#56C3F1" stroke-width="3"/>
<line y1="-1.5" x2="101.691" y2="-1.5" transform="matrix(-0.918491 0.395442 -0.337451 -0.941343 140.104 7.31128)" stroke="#56C3F1" stroke-width="3"/>
<line y1="-1.5" x2="95.889" y2="-1.5" transform="matrix(-0.834917 0.550376 -0.48116 -0.876633 183.469 131.606)" stroke="#56C3F1" stroke-width="3"/>
<line y1="-1.5" x2="73.7961" y2="-1.5" transform="matrix(0.135609 0.990762 -0.986757 0.162209 273.753 108.042)" stroke="#56C3F1" stroke-width="3"/>
<line y1="-1.5" x2="69.3152" y2="-1.5" transform="matrix(0.348753 -0.937215 0.928219 0.372033 266.041 244.094)" stroke="#56C3F1" stroke-width="3"/>
<line y1="-1.5" x2="45.3495" y2="-1.5" transform="matrix(0.779519 0.626379 -0.597962 0.801524 226.835 215.688)" stroke="#56C3F1" stroke-width="3"/>
<line y1="-1.5" x2="75.0609" y2="-1.5" transform="matrix(-0.844385 0.535737 -0.467108 -0.8842 230.171 208.376)" stroke="#56C3F1" stroke-width="3"/>
<line y1="-1.5" x2="71.5619" y2="-1.5" transform="matrix(0.9789 0.204339 -0.17124 0.985229 216.827 164.507)" stroke="#56C3F1" stroke-width="3"/>
<ellipse cx="183.358" cy="53.8148" rx="9.89622" ry="9.9462" fill="#1865FB"/>
<ellipse cx="46.5901" cy="123.273" rx="9.89622" ry="9.9462" fill="#1865FB"/>
<ellipse cx="99.963" cy="46.5033" rx="9.89622" ry="9.9462" fill="#1865FB"/>
<ellipse cx="52.3086" cy="258.041" rx="9.89622" ry="9.9462" fill="#1865FB"/>
<ellipse cx="166.679" cy="247.568" rx="9.89622" ry="9.9462" fill="#1865FB"/>
<ellipse cx="264.37" cy="242.035" rx="9.89622" ry="9.9462" fill="#1865FB"/>
<ellipse cx="276.761" cy="108.651" rx="9.89622" ry="9.9462" fill="#1865FB"/>
<ellipse cx="106.635" cy="181.765" rx="9.89622" ry="9.9462" fill="#1865FB"/>
<ellipse cx="186.694" cy="134.241" rx="9.89622" ry="9.9462" fill="#1865FB"/>
<ellipse cx="243.402" cy="46.5033" rx="9.89622" ry="9.9462" fill="#1865FB"/>
<ellipse cx="16.5679" cy="189.077" rx="9.89622" ry="9.9462" fill="#1865FB"/>
<ellipse cx="117.855" cy="290.054" rx="9.89622" ry="9.9462" fill="#1865FB"/>
<ellipse cx="196.701" cy="287.781" rx="9.89622" ry="9.9462" fill="#1865FB"/>
<ellipse cx="220.052" cy="167.142" rx="9.89622" ry="9.9462" fill="#1865FB"/>
<ellipse cx="49.9259" cy="53.8148" rx="9.89622" ry="9.9462" fill="#1865FB"/>
<ellipse cx="9.89622" cy="123.273" rx="9.89622" ry="9.9462" fill="#1865FB"/>
<ellipse cx="116.642" cy="225.634" rx="9.89622" ry="9.9462" fill="#1865FB"/>
<ellipse cx="143.329" cy="9.9462" rx="9.89622" ry="9.9462" fill="#1865FB"/>
<ellipse cx="143.329" cy="104.995" rx="9.89622" ry="9.9462" fill="#1865FB"/>
<ellipse cx="290.104" cy="178.109" rx="9.89622" ry="9.9462" fill="#1865FB"/>
<ellipse cx="230.059" cy="214.667" rx="9.89622" ry="9.9462" fill="#1865FB"/>
</svg>
