<svg version="1" xmlns="http://www.w3.org/2000/svg" width="560" height="560" viewBox="0 0 420.000000 420.000000"><path d="M189 1.1c-28.6 3.3-54.2 11-76.5 22.9-8.4 4.5-28.6 17.5-32 20.7-1.1 1-4 3.4-6.5 5.4C61.4 60.3 44.8 79.2 34.4 95c-16.1 24.6-28.5 56.8-31.9 83-.4 3-.9 6.4-1.2 7.5-1.2 5-.9 40.7.4 50.5 10.7 83.2 68.5 151.3 148.9 175.4 7 2.1 11.7 3.2 21.4 5.1 1.4.3 4.8.8 7.5 1.1 2.8.4 5.4.9 5.9 1.2 1.5.9 37.6 1 44.1.2 3.3-.5 8.2-1.1 10.9-1.5 11-1.4 36.5-8.5 43.3-12 1.5-.8 3.2-1.5 3.6-1.5.4 0 5.8-2.5 12-5.6 59.4-29.7 104.8-88.7 117.1-152.4 2.4-12.4 2.7-15.9 3.1-29 .4-15.1-1.1-20.4-8.1-27.5-6.3-6.5-12.1-9-21.4-9-9.2 0-15.1 2.4-21.1 8.6-6.9 7.1-8.2 11.1-9.4 29.4-2.3 35.2-19.1 69.7-47.4 97.5-12.6 12.4-23.1 20.1-37.4 27.5-10.7 5.6-30.8 12.9-38.7 13.9-2.5.3-7 1-10 1.6-6.8 1.1-32.6.6-40-.9-3-.7-6.7-1.4-8.1-1.6-4.7-.9-19.3-5.4-24.9-7.7-46.8-19.6-80.2-60.4-90.2-110.3-2.9-14.5-3.2-38.2-.6-53.5 6.4-37.6 26.8-71.2 57.2-94.5 17.9-13.6 45-25.5 64.1-28 2.8-.4 5.3-.9 5.6-1.1.3-.1 5.5-.6 11.5-.9 19-1 23.3-2.4 30.4-9.5 11.7-11.7 11.7-30.2 0-42-7-6.9-12.7-8.9-26-8.7-5.8.1-13 .4-16 .8z"/><path d="M202.7 115.6c-.2.2-2.2.6-4.5.9-6.6.8-20.1 5.3-27.7 9.2-28.6 14.5-47.1 39.1-54 71.8-.4 1.6-.8 8.4-1 15-.3 12.3.9 21.6 4 31 1.7 5.1 8.4 19.4 10.7 23 11.4 17.5 29.1 32.5 47.6 40.5 16 6.9 34.3 9.6 44.5 6.6 10-2.9 17.7-13.3 17.7-23.8 0-5.3-3.8-14-7.7-17.6-5.3-4.8-8.3-6.1-15.5-6.8-14-1.3-23.5-5-32.6-12.6-18.9-15.7-24.1-38.3-14-59.8 4.1-8.6 14-18.5 22.8-22.8 8.1-3.9 10.3-4.3 21.5-4.7 7.3-.2 10.3.2 15.8 2 19.6 6.7 32.5 22.9 34.3 43.3.9 9.9 1.1 10.8 3.6 15.8 7.4 14.8 27.7 17.8 39.4 5.7 6-6.1 7.8-12.2 7.1-23.2-.4-4.7-.9-10-1.2-11.6-9.3-48.4-50.4-82.5-99.2-82.3-6.2 0-11.4.2-11.6.4z"/></svg>