<?xml version="1.0" encoding="utf-8"?>
<svg viewBox="0 0 512 512" version="1" xmlns="http://www.w3.org/2000/svg">
  <path d="M131 171c0-16 5-32 15-48s25-29 45-40c19-11 42-16 68-16 24 0 45 4 63 13 19 9 33 21 43 37a89 89 0 0 1 6 86c-5 11-12 20-20 28a1490 1490 0 0 1-56 53 55 55 0 0 0-11 20l-5 17c-3 17-13 26-29 26-9 0-16-3-22-9-6-5-9-14-9-25a92 92 0 0 1 24-63c7-8 17-17 29-27l23-21 12-16c3-6 5-12 5-19 0-13-5-25-15-34s-23-13-38-13c-19 0-32 4-41 13-8 10-16 23-22 41-5 19-16 28-32 28-9 0-17-3-23-10-7-6-10-13-10-21zm122 273c-11 0-19-3-27-10-8-6-11-16-11-27s3-20 11-27c7-7 16-10 27-10 10 0 19 3 26 10s11 16 11 27-4 20-12 27c-7 7-16 10-25 10z" fill="#000" fill-rule="evenodd"/>
</svg>
