<?xml version="1.0" encoding="utf-8"?>
<svg viewBox="0 0 512 512" xmlns="http://www.w3.org/2000/svg">
  <g fill="#000" fill-rule="evenodd">
    <path d="M368.6932 278v86.854H279v51.0632h89.6932V502h48.5129v-86.0828H502V364.854h-84.794V278z"/>
    <path d="M78.0055 359.679c-.7854-43.3212 83.2563-60.022 91.4942-60.022h42.7584v-54.3815c-28.5056-8.006-42.7584-37.3835-42.7584-88.1324 0-76.1233 42.6162-92.231 90.2328-92.1427 47.6167.0882 84.8054 16.0194 86.7004 92.1427 1.2634 50.7489-13.2288 80.1263-43.4766 88.1324v54.3815h27.6573c14.9785 0 22.4677 8.8596 22.4677 26.5787v22.889h-93.3488V403H133.2963c-36.337 0-54.7673-14.4404-55.2908-43.321z"/>
  </g>
</svg>
