<?xml version="1.0" standalone="no"?>
<!DOCTYPE svg PUBLIC "-//W3C//DTD SVG 20010904//EN"
 "http://www.w3.org/TR/2001/REC-SVG-20010904/DTD/svg10.dtd">
<svg version="1.0" xmlns="http://www.w3.org/2000/svg"
 width="510.000000pt" height="510.000000pt" viewBox="0 0 510.000000 510.000000"
 preserveAspectRatio="xMidYMid meet">
<metadata>
Created by potrace 1.11, written by Peter Selinger 2001-2013
</metadata>
<g transform="translate(0.000000,510.000000) scale(0.100000,-0.100000)"
fill="#000000" stroke="none">
<path d="M2667 5024 c-14 -15 -6 -34 14 -34 14 0 19 5 17 17 -3 18 -20 27 -31
17z"/>
<path d="M2352 4998 c-31 -7 -42 -14 -38 -23 6 -15 -2 -18 -87 -35 -57 -11
-58 -13 -52 -38 3 -15 10 -30 13 -34 4 -4 39 -1 77 7 39 8 71 15 72 15 1 0 0
-7 -4 -16 -5 -15 0 -16 43 -10 33 5 44 4 34 -3 -12 -8 -12 -12 4 -29 17 -19
16 -21 -5 -41 -13 -12 -31 -21 -42 -21 -12 0 -17 -5 -14 -14 3 -7 0 -19 -6
-25 -9 -9 -8 -14 3 -21 8 -5 11 -10 6 -10 -6 0 -5 -5 1 -11 8 -8 19 -6 42 5
17 9 31 12 31 7 0 -12 76 -7 113 7 22 10 27 18 27 47 0 32 2 35 30 35 17 0 37
-6 45 -12 11 -11 9 -17 -13 -36 -18 -16 -23 -25 -14 -28 21 -10 13 -23 -24
-39 -25 -10 -34 -20 -31 -30 4 -9 -5 -21 -24 -32 -27 -16 -28 -19 -13 -30 14
-10 10 -12 -29 -11 -45 1 -46 1 -31 23 13 20 13 25 -1 39 -20 20 -29 20 -49 1
-9 -9 -13 -27 -11 -45 2 -17 0 -30 -5 -30 -24 0 -38 -30 -30 -66 5 -19 11 -38
15 -42 10 -11 23 19 17 42 -3 11 -2 19 1 16 6 -6 10 -27 22 -112 6 -38 11 -48
26 -48 14 0 19 8 20 28 1 21 2 22 6 7 3 -11 10 -23 16 -27 20 -12 28 4 22 43
-5 27 -3 39 5 39 7 0 10 7 6 15 -3 8 -1 15 5 15 7 0 9 16 7 43 -4 35 -2 43 13
44 12 1 15 -4 11 -19 -4 -17 -2 -20 11 -15 14 5 15 2 7 -19 -13 -33 -13 -34 5
-34 14 0 20 -18 15 -49 -4 -29 11 -81 24 -81 7 0 29 19 49 41 29 34 35 48 31
75 -2 18 0 44 5 56 6 17 5 30 -5 43 -8 10 -14 27 -14 36 0 10 -9 24 -19 31
-19 14 -19 14 1 27 15 10 18 15 9 24 -7 7 -16 13 -21 13 -6 1 -13 2 -17 3 -3
0 4 12 16 25 30 32 51 16 41 -31 -8 -36 -5 -43 21 -43 13 0 20 13 29 58 18 92
21 105 25 100 8 -8 -22 -157 -34 -172 -7 -8 -8 -17 -3 -20 6 -4 7 -21 2 -43
-9 -41 -16 -81 -26 -154 -6 -42 -4 -48 15 -54 24 -7 41 0 41 20 0 8 5 17 11
21 7 4 9 -2 7 -16 -4 -30 24 -49 46 -31 9 8 16 24 16 37 0 12 4 25 10 29 5 3
7 12 3 20 -3 9 1 15 11 15 9 0 16 5 16 10 0 6 -5 10 -11 10 -13 0 -8 46 20
198 20 108 39 156 26 62 -14 -91 -12 -124 7 -128 11 -2 18 7 23 30 4 18 14 42
21 53 14 19 14 19 15 0 1 -11 0 -26 -1 -34 -1 -9 4 -12 16 -7 19 7 18 6 -43
-63 -22 -24 -22 -48 -1 -35 6 4 8 2 4 -4 -3 -6 -2 -13 3 -16 5 -3 23 11 40 31
17 20 33 34 35 32 2 -2 -7 -30 -20 -63 -24 -55 -26 -86 -6 -86 5 0 22 29 37
65 35 82 43 81 10 -1 -19 -48 -23 -68 -16 -92 8 -25 6 -30 -5 -25 -22 8 -16
-14 9 -32 l22 -17 -25 7 c-14 4 -30 13 -36 21 -6 8 -17 14 -23 14 -7 0 -9 5
-6 10 3 6 5 10 3 10 -2 1 -19 3 -39 6 -31 5 -37 2 -48 -22 -10 -22 -9 -30 5
-46 10 -10 24 -16 31 -13 8 2 11 0 8 -5 -4 -6 7 -8 27 -6 18 2 43 0 56 -5 19
-7 28 -5 38 8 12 17 13 16 14 -5 0 -12 -8 -34 -17 -48 -14 -21 -14 -27 -3 -34
9 -6 18 -3 26 8 12 15 12 15 8 -4 -10 -39 15 -36 40 5 18 27 31 38 43 35 20
-5 56 46 44 63 -13 21 -93 64 -109 59 -9 -3 -25 1 -34 8 -17 12 -16 17 12 67
16 30 30 49 30 43 0 -5 7 -19 16 -30 15 -19 15 -18 11 4 -6 28 -1 28 14 1 8
-17 8 -27 -2 -47 -11 -20 -11 -26 -1 -29 6 -3 12 -11 12 -19 0 -16 45 -20 55
-4 9 15 25 12 25 -5 0 -8 4 -15 9 -15 8 0 79 76 126 135 16 19 16 19 5 -2 -5
-12 -15 -25 -20 -28 -14 -8 -13 -25 1 -25 16 0 69 62 69 81 0 17 -71 79 -90
79 -6 0 -8 5 -5 10 3 6 1 10 -6 10 -9 0 -9 3 0 14 8 10 9 16 1 21 -7 4 -7 12
0 25 15 28 12 49 -7 46 -10 -2 -22 -15 -28 -30 -6 -14 -14 -23 -18 -19 -5 4
-10 -3 -14 -15 -3 -12 -9 -20 -13 -17 -15 9 -17 -56 -3 -71 8 -8 10 -14 4 -14
-17 0 -13 -33 6 -60 l17 -25 -31 25 c-18 14 -35 33 -38 43 -4 9 -14 17 -24 17
-15 0 -17 7 -13 48 5 58 12 68 12 19 0 -26 4 -37 15 -37 13 0 21 25 16 53 -1
4 10 13 24 19 30 14 31 18 5 68 -12 24 -25 37 -33 34 -7 -2 -29 2 -48 9 -40
17 -54 13 -92 -21 -15 -15 -40 -27 -54 -28 -15 0 -29 -6 -31 -13 -7 -21 -22
-11 -17 12 15 70 13 89 -9 112 -13 13 -42 26 -72 30 -48 9 -48 9 -15 14 45 8
65 37 48 71 -16 33 -69 40 -89 12 -7 -10 -28 -27 -45 -36 -18 -9 -34 -21 -34
-26 -1 -6 -2 -14 -3 -19 -3 -21 -47 -62 -59 -54 -8 5 -7 9 6 11 13 3 16 9 12
23 -4 11 -2 19 4 19 14 0 14 33 -1 65 -10 22 -17 26 -46 23 -30 -3 -37 -8 -48
-40 -9 -25 -9 -40 -3 -44 6 -3 9 -15 6 -25 -3 -11 1 -20 12 -22 9 -2 -3 -4
-26 -3 -28 0 -43 5 -43 13 0 18 -55 17 -73 -2 -22 -21 -46 10 -40 51 4 26 9
30 28 26 26 -4 38 9 29 32 -8 21 -40 20 -53 -1 -10 -16 -10 -16 -11 3 0 42
-22 49 -98 32z m-65 -84 c-3 -3 -12 -4 -19 -1 -8 3 -5 6 6 6 11 1 17 -2 13 -5z
m-40 -10 c-3 -3 -12 -4 -19 -1 -8 3 -5 6 6 6 11 1 17 -2 13 -5z m163 -8 c0 -2
-13 -6 -29 -8 -17 -2 -28 -1 -25 4 5 8 54 12 54 4z m405 -349 c-11 -60 -25
-99 -25 -71 0 18 22 129 27 137 11 18 10 -1 -2 -66z m525 20 c0 -2 -10 -12
-22 -23 l-23 -19 19 23 c18 21 26 27 26 19z m-42 -116 c-13 -15 -25 -27 -27
-25 -4 4 39 54 47 54 2 0 -7 -13 -20 -29z m-831 -33 c-3 -7 -5 -2 -5 12 0 14
2 19 5 13 2 -7 2 -19 0 -25z"/>
<path d="M2760 4959 c0 -25 33 -22 38 4 2 12 -3 17 -17 17 -15 0 -21 -6 -21
-21z"/>
<path d="M3072 4923 c4 -16 1 -19 -17 -15 -22 4 -41 -20 -30 -38 3 -5 1 -20
-4 -34 -9 -21 -7 -26 11 -32 21 -6 38 8 38 33 0 7 6 10 14 7 16 -6 29 23 19
39 -5 7 -8 21 -8 31 0 11 -6 21 -14 24 -10 3 -12 -1 -9 -15z"/>
<path d="M2046 4895 c-9 -9 -16 -22 -16 -30 0 -8 -7 -11 -20 -8 -13 4 -20 0
-20 -9 0 -11 -7 -14 -23 -11 -19 4 -31 -5 -57 -39 -19 -23 -48 -57 -66 -74
-32 -29 -32 -31 -13 -44 10 -8 19 -21 19 -28 0 -9 6 -12 16 -8 12 5 11 0 -5
-22 -25 -35 -15 -56 23 -46 25 6 27 4 24 -21 -2 -18 3 -31 15 -39 15 -9 22 -7
37 12 10 12 21 19 24 14 3 -5 -15 -23 -39 -40 -25 -17 -45 -36 -45 -42 0 -6
13 -35 30 -66 29 -54 67 -94 89 -94 7 0 26 -22 43 -50 17 -27 34 -50 38 -50
16 0 29 27 20 38 -7 9 -7 9 2 2 26 -21 41 -11 34 22 -3 18 -10 34 -15 38 -5 3
-34 47 -65 98 -31 52 -52 91 -47 87 6 -3 20 -23 32 -45 21 -37 49 -54 49 -30
0 18 -69 120 -86 127 -12 4 -13 8 -3 14 10 6 6 13 -14 29 -22 17 -25 25 -17
36 7 7 9 18 5 24 -4 6 -1 9 6 8 6 -2 14 3 17 11 3 10 -1 13 -17 8 -11 -3 -23
-1 -26 4 -3 4 -19 6 -35 2 -39 -7 -38 7 4 35 18 12 44 34 57 48 19 21 21 28
12 44 -16 24 5 33 32 14 25 -18 50 -18 69 2 13 12 16 12 16 2 0 -8 -20 -24
-45 -36 -30 -15 -47 -30 -51 -47 -6 -25 11 -193 20 -203 3 -2 13 -2 22 2 13 5
15 16 12 56 -6 67 8 50 16 -20 4 -30 8 -64 10 -75 2 -11 4 -26 5 -32 1 -9 8
-10 27 -3 37 15 47 12 41 -10 -3 -11 -1 -23 4 -26 6 -3 23 -35 40 -70 31 -65
56 -82 66 -44 6 21 18 26 28 10 9 -15 35 0 35 22 0 10 -11 44 -25 74 -31 68
-33 110 -5 119 20 6 20 7 -2 37 -55 73 -54 70 -25 62 26 -6 27 -5 25 30 -2 20
-7 36 -12 36 -5 0 -2 7 5 17 11 12 11 17 2 20 -10 4 -9 11 2 33 14 27 14 30
-4 40 -17 9 -21 5 -32 -24 -14 -38 -28 -38 -67 1 -13 13 -29 23 -37 23 -8 0
-11 7 -8 19 4 16 0 19 -20 17 -16 -2 -24 1 -21 8 13 35 -61 69 -90 41z m178
-181 c5 -14 4 -15 -9 -4 -17 14 -19 20 -6 20 5 0 12 -7 15 -16z m35 -250 c17
-38 6 -42 -14 -5 -8 17 -12 31 -7 31 5 0 14 -12 21 -26z"/>
<path d="M3161 4846 c-20 -24 4 -58 37 -54 23 2 27 8 27 33 0 25 -4 31 -26 33
-14 2 -31 -4 -38 -12z"/>
<path d="M2580 4761 c0 -11 4 -22 8 -25 14 -9 35 12 29 28 -9 23 -37 20 -37
-3z"/>
<path d="M3260 4751 c0 -15 6 -21 21 -21 14 0 19 5 17 17 -5 26 -38 29 -38 4z"/>
<path d="M3405 4619 c-6 -19 6 -39 25 -39 16 0 31 20 28 36 -5 28 -45 30 -53
3z"/>
<path d="M1743 4389 c-6 -21 -7 -21 -20 -4 -11 15 -18 17 -41 9 -16 -6 -26
-16 -24 -25 1 -9 -9 -22 -23 -29 -14 -7 -25 -20 -25 -27 0 -8 4 -11 10 -8 6 4
7 -1 3 -11 -7 -18 5 -17 50 1 14 6 17 2 17 -19 0 -16 6 -26 15 -26 8 0 15 -4
15 -10 0 -5 -5 -10 -11 -10 -5 0 -8 -4 -4 -9 7 -13 -30 -32 -48 -25 -24 9 -30
-27 -7 -43 20 -14 19 -17 -47 -57 -37 -23 -69 -49 -71 -58 -2 -10 9 -38 23
-63 20 -33 32 -44 45 -40 24 8 67 -29 81 -70 7 -19 18 -34 24 -33 5 0 17 -1
25 -5 8 -3 22 -7 30 -10 8 -2 -9 -9 -37 -16 -55 -14 -60 -19 -43 -52 10 -17 8
-19 -20 -17 -25 2 -37 11 -56 44 -26 45 -30 59 -13 48 7 -4 1 12 -11 34 -15
26 -31 42 -42 42 -10 0 -21 7 -24 15 -4 8 -12 15 -20 15 -16 0 -19 -26 -4 -35
6 -4 4 -12 -5 -21 -13 -14 -13 -19 1 -46 9 -17 24 -33 34 -35 11 -3 28 -24 40
-47 l20 -41 -37 -11 c-43 -12 -55 -44 -17 -44 16 0 22 -4 18 -14 -9 -23 13
-28 46 -11 17 9 30 11 30 5 0 -5 -4 -10 -9 -10 -5 0 -17 -7 -26 -16 -12 -12
-13 -19 -4 -30 10 -12 20 -9 65 17 30 17 54 26 54 20 0 -6 6 -11 14 -11 18 0
31 -51 15 -61 -7 -4 -21 1 -32 12 -25 23 -40 24 -57 4 -19 -22 -8 -50 20 -51
15 0 24 -5 22 -13 -1 -7 4 -18 13 -25 14 -10 13 -14 -12 -32 -43 -32 -48 -33
-63 -24 -11 7 -9 12 10 28 27 22 24 35 -20 92 l-19 25 -35 -19 c-27 -14 -33
-22 -26 -32 8 -9 1 -18 -25 -34 -19 -12 -35 -25 -35 -29 0 -16 14 -20 29 -8
14 10 14 10 3 -5 -17 -22 -7 -42 15 -29 17 9 23 5 78 -59 17 -19 23 -29 13
-22 -34 26 -26 -6 11 -42 33 -32 42 -36 59 -27 17 9 22 8 27 -9 3 -11 3 -25 0
-31 -10 -15 15 -69 31 -69 8 0 11 7 8 18 -5 17 43 -54 49 -72 2 -5 9 -6 16 -2
7 5 10 15 6 23 -4 13 -3 14 9 4 29 -25 36 -1 11 39 -21 34 -22 39 -8 44 12 5
14 9 5 18 -7 7 -12 17 -12 22 0 6 7 0 16 -12 9 -13 22 -21 29 -18 8 3 25 -12
40 -35 28 -40 52 -53 40 -21 -5 13 -4 14 6 5 10 -10 9 -15 -1 -28 -7 -8 -9
-15 -4 -15 4 0 3 -5 -3 -11 -8 -8 -18 -6 -35 5 -23 15 -26 15 -43 -4 -10 -11
-23 -20 -30 -20 -15 0 -55 -34 -55 -46 0 -5 -9 -15 -20 -22 -11 -7 -17 -18
-14 -27 5 -13 9 -13 35 1 32 16 37 10 14 -16 -13 -15 -12 -19 10 -40 20 -19
22 -26 13 -43 -9 -17 -8 -19 7 -13 12 4 23 0 32 -13 13 -20 15 -19 81 21 37
22 77 47 89 55 20 14 23 12 38 -18 l17 -32 64 69 c35 38 64 63 64 56 0 -7 -7
-15 -15 -18 -14 -6 -31 -41 -27 -56 1 -4 -9 -15 -23 -24 -23 -15 -37 -43 -15
-29 6 3 10 4 10 1 0 -2 -16 -14 -36 -26 -24 -16 -32 -26 -25 -33 7 -7 16 -6
28 4 16 12 15 11 -1 -9 -21 -24 -9 -29 25 -12 15 8 19 7 19 -5 0 -25 18 -17
67 29 25 24 52 42 59 39 8 -3 14 1 14 11 0 9 6 13 13 10 15 -5 37 35 37 66 0
11 5 20 10 20 6 0 10 9 10 20 0 13 7 20 19 20 11 0 22 6 24 13 4 9 6 9 6 0 1
-19 41 18 41 38 0 9 8 20 17 23 15 6 15 9 3 16 -8 5 -19 6 -24 2 -14 -8 -102
-11 -113 -3 -21 13 -64 99 -53 106 5 3 15 -6 20 -21 15 -38 39 -53 77 -47 18
3 33 1 33 -4 0 -13 60 -10 88 5 12 7 22 18 22 23 0 6 6 9 14 6 23 -9 39 18 21
33 -12 10 -16 9 -22 -5 -6 -17 -7 -17 -14 2 -9 25 -62 35 -82 16 -11 -12 -18
-10 -41 12 -15 14 -35 25 -45 25 -34 0 -42 23 -16 46 13 12 26 19 29 16 3 -3
8 2 12 11 4 10 -6 33 -25 59 l-31 42 25 26 c14 14 25 31 25 38 0 14 -69 82
-83 82 -6 0 -18 6 -26 14 -9 8 -29 21 -45 30 -28 14 -31 13 -73 -15 -23 -17
-43 -36 -43 -44 0 -8 -7 -15 -16 -15 -9 0 -12 -5 -8 -12 5 -7 2 -9 -8 -5 -9 3
-20 1 -26 -5 -6 -6 -18 -8 -28 -4 -16 6 -15 8 4 22 25 18 28 46 7 67 -18 19
-54 11 -63 -14 -7 -16 -9 -16 -45 5 -27 17 -34 25 -23 29 8 3 17 -1 20 -9 3
-8 12 -14 21 -14 19 0 20 29 1 36 -19 7 -9 43 22 76 13 15 25 38 25 53 0 37
-63 127 -85 121 -9 -2 -19 1 -20 6 -2 6 -24 12 -49 15 -44 5 -47 8 -92 79 -25
41 -42 74 -37 74 6 0 10 -3 10 -7 0 -5 7 -16 14 -26 14 -18 47 -14 42 6 -1 7
-1 9 1 5 8 -14 33 -8 33 7 0 8 -7 15 -16 15 -12 0 -14 3 -6 13 8 9 5 22 -10
46 -13 21 -23 28 -28 21 -5 -8 -9 -7 -14 5 -3 9 -6 17 -6 18 0 1 12 3 27 4 30
1 67 39 56 56 -3 5 -1 7 5 3 13 -8 26 10 17 24 -5 8 -11 7 -21 -1 -12 -9 -14
-6 -14 20 0 21 -6 34 -17 39 -21 8 -24 33 -5 45 17 11 15 34 -4 41 -11 4 -18
-1 -21 -15z m-73 -63 c0 -2 -7 -7 -16 -10 -8 -3 -12 -2 -9 4 6 10 25 14 25 6z
m64 -422 c10 -25 -1 -29 -14 -5 -6 12 -7 21 -1 21 5 0 12 -7 15 -16z m-206
-99 c-3 -3 -9 2 -12 12 -6 14 -5 15 5 6 7 -7 10 -15 7 -18z m402 -49 c0 -2 -8
-10 -17 -17 -16 -13 -17 -12 -4 4 13 16 21 21 21 13z m-121 -160 c10 -12 8
-17 -8 -26 -12 -6 -21 -7 -21 -1 0 5 -3 16 -6 25 -8 20 19 21 35 2z m21 -66
c-14 -11 -32 -20 -40 -20 -8 0 -1 9 15 19 39 26 57 26 25 1z m295 -50 c10 -29
23 -50 31 -50 8 0 14 6 15 13 0 6 8 -6 18 -27 11 -26 20 -36 25 -28 4 7 12 12
18 12 7 0 6 -5 -2 -15 -6 -8 -9 -19 -5 -24 4 -7 -1 -8 -12 -4 -15 6 -16 5 -3
-10 14 -15 16 -15 33 5 14 17 20 18 32 8 20 -16 20 -44 0 -36 -8 3 -18 -2 -23
-10 -5 -9 -12 -14 -17 -12 -4 1 -16 -13 -27 -33 -16 -31 -26 -37 -74 -48 -56
-13 -57 -13 -83 15 l-26 28 27 -23 c37 -32 46 -21 13 15 -14 15 -24 33 -21 40
3 7 -2 15 -10 18 -9 3 -13 10 -10 14 5 9 -81 56 -101 55 -29 -1 -33 -4 -33
-18 0 -14 12 -20 33 -16 4 1 3 -7 -2 -17 -11 -21 22 -82 45 -82 8 0 26 -12 39
-26 14 -15 25 -21 25 -15 0 7 5 9 11 5 8 -5 4 -12 -10 -24 -20 -14 -21 -18 -7
-29 13 -11 28 -10 86 4 39 10 73 15 75 13 10 -9 -174 -50 -195 -43 -12 4 -19
9 -16 12 3 4 -10 28 -30 56 -19 27 -31 46 -25 42 18 -11 12 14 -11 45 -23 31
-46 38 -65 19 -9 -9 -10 -7 -6 10 4 15 1 21 -10 21 -23 0 -31 -18 -16 -36 9
-10 9 -18 2 -25 -8 -8 -15 -5 -23 11 -7 14 -18 20 -29 17 -14 -3 -17 1 -13 20
3 15 24 37 61 61 78 53 92 59 51 23 -24 -21 -32 -33 -25 -40 8 -8 28 0 68 25
51 32 60 35 75 22 18 -15 52 -13 52 3 0 5 5 9 10 9 6 0 5 -7 -2 -19 -10 -16
-7 -25 17 -57 23 -30 30 -34 34 -21 5 13 14 5 40 -33 19 -28 36 -50 38 -50 2
0 13 9 24 19 13 12 17 21 10 25 -6 4 -25 28 -43 54 -17 26 -24 41 -15 33 24
-19 21 -4 -5 36 -19 28 -28 33 -51 29 -27 -5 -27 -5 -11 19 9 14 14 31 11 39
-3 8 -1 17 6 20 7 2 13 5 14 5 1 1 9 -21 18 -49z m44 -10 c0 -10 -3 -8 -9 5
-12 27 -12 43 0 25 5 -8 9 -22 9 -30z m-419 -58 c0 -4 -15 -16 -32 -26 l-33
-17 30 25 c33 29 35 30 35 18z m570 -156 c0 -2 -7 -7 -16 -10 -8 -3 -12 -2 -9
4 6 10 25 14 25 6z m8 -265 c3 -10 -1 -10 -16 0 -18 11 -24 10 -41 -5 -25 -22
-28 -10 -5 15 17 19 54 13 62 -10z m-358 -26 c-30 -19 -61 -35 -70 -34 -8 0
-1 7 15 14 17 8 41 23 55 34 14 12 32 21 40 21 8 0 -10 -16 -40 -35z m252 -36
c-13 -11 -19 -25 -15 -32 4 -7 -1 -6 -11 2 -16 13 -15 16 11 37 34 27 45 22
15 -7z"/>
<path d="M2864 4399 c-3 -6 -1 -16 5 -22 9 -9 14 -8 21 3 9 15 4 30 -10 30 -5
0 -12 -5 -16 -11z"/>
<path d="M3411 4356 c-10 -12 -8 -17 7 -25 11 -6 23 -7 27 -3 4 4 2 -4 -5 -18
-6 -14 -29 -33 -53 -43 -89 -39 -112 -53 -110 -67 11 -75 28 -106 48 -90 9 8
15 8 20 1 9 -15 45 9 45 30 0 12 8 15 26 13 35 -3 57 -24 26 -24 -12 0 -22 -4
-22 -10 0 -5 -5 -9 -10 -7 -6 1 -18 -11 -27 -28 -42 -77 -43 -89 -8 -83 30 6
31 1 6 -32 -19 -23 -20 -24 -38 -7 -15 13 -22 14 -33 4 -10 -9 -11 -9 -6 1 4
7 1 12 -8 12 -9 0 -16 8 -16 18 0 14 2 15 10 2 11 -18 13 -15 28 35 11 38 11
41 -13 63 -34 29 -43 28 -85 -10 -23 -20 -31 -32 -22 -35 10 -4 10 -9 -3 -23
-11 -12 -13 -20 -5 -25 14 -9 -6 -35 -27 -35 -12 0 -13 -16 -4 -59 1 -2 7 2
15 8 12 10 13 8 8 -11 -5 -21 -4 -22 12 -9 15 12 21 13 38 2 17 -10 22 -10 29
0 6 10 10 10 23 0 9 -7 13 -17 10 -22 -3 -5 4 -9 15 -9 12 0 21 -4 21 -9 0 -5
8 -11 18 -14 11 -2 21 -13 24 -24 5 -19 2 -20 -31 -12 -73 17 -97 12 -131 -28
-17 -22 -26 -28 -20 -15 25 52 -31 95 -71 55 -16 -16 -18 -24 -10 -46 6 -15
17 -27 25 -27 9 0 14 -8 13 -20 -2 -24 -6 -24 -31 -5 -10 8 -23 12 -27 9 -5
-3 -9 -1 -9 4 0 5 -13 9 -30 10 -25 1 -30 -3 -30 -24 0 -14 7 -27 15 -30 9 -4
13 -13 10 -24 -4 -11 3 -23 20 -34 23 -15 30 -14 26 7 -1 5 12 -1 28 -12 36
-26 55 -27 47 -3 -5 14 -4 14 9 -2 8 -11 15 -25 16 -30 0 -6 2 -21 3 -32 2
-19 -1 -21 -25 -14 -20 6 -36 3 -59 -12 l-33 -19 27 -28 c14 -15 23 -30 20
-34 -4 -4 1 -9 10 -13 9 -3 14 -9 11 -13 -10 -17 31 -54 106 -98 43 -25 79
-51 79 -58 0 -8 -8 -11 -18 -8 -20 5 -67 -51 -59 -72 3 -7 -5 -28 -19 -46 -13
-18 -24 -37 -24 -42 0 -10 30 -41 34 -36 61 86 79 109 84 109 3 0 1 -5 -6 -12
-7 -7 -12 -17 -12 -22 0 -6 5 -5 12 2 15 15 32 16 23 2 -3 -5 1 -10 10 -10 15
0 14 -4 -4 -34 -26 -41 -26 -52 -3 -60 9 -3 22 -8 27 -11 6 -3 19 11 29 30 14
26 24 34 37 30 12 -4 19 1 24 15 3 11 11 20 16 20 12 0 3 90 -10 103 -16 16
-44 -1 -38 -23 3 -11 1 -20 -4 -20 -5 0 -9 7 -9 15 0 9 -11 27 -24 40 -14 13
-27 34 -31 45 -3 11 -15 20 -25 20 -10 0 -20 7 -24 15 -3 8 -20 24 -38 35 -18
11 -29 20 -25 20 5 0 63 -34 129 -76 66 -41 128 -74 137 -72 32 6 15 34 -49
75 -36 23 -74 49 -85 58 l-20 16 20 -10 c11 -6 52 -30 90 -55 60 -39 72 -43
84 -31 12 12 12 17 0 32 -13 17 -13 17 7 1 35 -30 69 -14 43 20 -11 14 -11 15
1 5 20 -18 37 -16 44 5 3 9 8 22 11 28 3 5 -13 20 -35 33 -22 12 -40 25 -40
27 0 3 5 2 10 -1 18 -11 11 17 -7 31 -26 20 -50 17 -67 -8 l-16 -22 0 22 c0
32 -41 30 -57 -4 -9 -20 -9 -26 3 -31 8 -3 14 -14 14 -25 0 -20 0 -20 -32 -1
-29 17 -33 24 -33 64 -1 24 -4 50 -9 57 -5 8 -2 10 10 5 14 -5 15 -3 5 14 -8
16 -7 24 3 32 14 11 46 5 46 -9 0 -4 19 -15 43 -25 23 -10 50 -22 59 -26 10
-5 21 -3 28 6 9 11 4 19 -24 37 -46 30 -47 46 -1 18 19 -12 39 -19 45 -15 15
9 12 33 -6 43 -13 7 -14 15 -6 45 9 33 8 38 -15 55 -22 16 -24 22 -14 40 7 13
17 19 26 16 8 -4 15 -4 15 -1 0 2 7 21 15 40 13 31 13 38 0 50 -13 13 -12 16
2 21 12 5 13 10 5 18 -13 13 -46 2 -36 -13 4 -7 0 -9 -14 -5 -17 6 -25 0 -42
-33 -24 -48 -25 -58 -4 -40 10 8 8 -1 -7 -27 -12 -21 -24 -41 -26 -43 -1 -2
-14 1 -27 7 -17 8 -23 17 -21 36 2 15 -2 26 -9 26 -20 0 -16 40 8 79 12 20 26
45 31 56 8 19 9 19 12 -2 3 -13 8 -23 13 -23 5 0 15 -3 24 -6 11 -4 16 0 16
14 0 12 6 25 13 29 16 9 29 66 21 88 -3 8 -28 27 -55 42 -27 14 -49 30 -49 35
0 12 8 10 35 -8 23 -15 27 -15 50 0 20 13 24 22 19 39 -9 30 -24 38 -57 33
-15 -3 -38 0 -52 6 -20 9 -23 16 -18 37 3 14 7 28 9 30 2 2 -2 11 -9 19 -10
13 -9 14 12 2 21 -11 23 -10 18 4 -6 14 -1 13 32 -4 40 -20 59 -17 39 7 -8 11
-7 12 6 7 34 -13 14 16 -29 42 -44 25 -64 45 -25 24 13 -7 20 -7 20 -1 0 6 -9
15 -21 21 -16 9 -24 8 -39 -5 -16 -14 -18 -14 -23 0 -8 19 -21 19 -36 1z m15
-434 c-9 -17 -21 -34 -27 -38 -6 -3 0 12 12 34 27 47 38 49 15 4z m84 -246
c-6 -8 -18 -12 -26 -9 -19 7 -7 23 18 23 17 0 18 -3 8 -14z m-210 -51 c13 -14
21 -25 18 -25 -2 0 -15 11 -28 25 -13 14 -21 25 -18 25 2 0 15 -11 28 -25z
m-60 -11 c0 -8 -4 -12 -10 -9 -5 3 -10 10 -10 16 0 5 5 9 10 9 6 0 10 -7 10
-16z m240 1 c7 -8 8 -15 2 -15 -5 0 -15 7 -22 15 -7 8 -8 15 -2 15 5 0 15 -7
22 -15z m-276 -94 c3 -5 -1 -14 -8 -20 -12 -10 -13 -8 -9 8 6 23 9 25 17 12z
m123 -42 c19 -12 32 -23 29 -26 -2 -3 -22 7 -43 21 -45 31 -35 35 14 5z m114
-362 c-10 -9 -11 -8 -5 6 3 10 9 15 12 12 3 -3 0 -11 -7 -18z"/>
<path d="M3276 4265 c-6 -17 16 -31 33 -21 13 9 2 36 -14 36 -7 0 -16 -7 -19
-15z"/>
<path d="M1875 4260 c-4 -7 -3 -16 3 -22 14 -14 45 -2 40 15 -6 16 -34 21 -43
7z"/>
<path d="M1838 4204 c-6 -13 -15 -24 -20 -24 -4 0 -8 -9 -8 -20 0 -11 7 -20
16 -20 10 0 12 -4 7 -12 -4 -7 -9 -31 -9 -53 -2 -50 -7 -72 -21 -86 -9 -9 -8
-15 0 -24 10 -11 16 -10 31 3 10 10 21 16 25 16 3 -1 5 1 4 5 -4 16 46 7 58
-11 35 -49 39 -53 46 -42 5 6 14 13 21 15 8 3 5 15 -13 41 -16 24 -21 39 -14
44 7 4 -2 20 -23 42 -18 20 -24 29 -12 19 11 -9 24 -14 28 -10 4 4 -8 20 -26
35 -23 19 -28 28 -17 28 18 0 35 48 22 60 -4 4 -25 10 -46 13 -33 5 -39 3 -49
-19z m123 -231 c13 -16 12 -17 -3 -4 -17 13 -22 21 -14 21 2 0 10 -8 17 -17z"/>
<path d="M1542 4178 c-15 -15 -16 -54 -2 -63 23 -14 49 -12 66 6 36 40 -26 95
-64 57z"/>
<path d="M1989 3906 c-30 -15 -36 -42 -13 -67 22 -24 56 -24 71 0 26 42 -15
89 -58 67z"/>
<path d="M2112 3791 c-13 -8 -6 -41 8 -41 4 0 13 6 19 14 14 17 -8 39 -27 27z"/>
<path d="M2038 3779 c-10 -5 -18 -14 -18 -19 0 -5 8 -7 18 -4 15 5 15 4 -1 -6
-10 -7 -21 -9 -24 -6 -3 3 -12 -6 -19 -20 -11 -20 -11 -29 -1 -45 13 -21 23
-24 32 -9 3 6 18 10 33 10 30 1 62 21 62 40 0 18 -40 70 -53 70 -7 0 -20 -5
-29 -11z"/>
<path d="M3586 3721 c-7 -11 18 -33 27 -24 4 3 7 12 7 20 0 15 -26 18 -34 4z"/>
<path d="M2090 3670 c-16 -16 -18 -25 -10 -40 12 -22 40 -26 58 -8 18 18 14
46 -8 58 -15 8 -24 6 -40 -10z"/>
<path d="M3001 3626 c-29 -35 22 -82 54 -50 8 9 15 18 15 22 -1 29 -51 49 -69
28z"/>
<path d="M2337 3576 c-7 -19 18 -40 39 -32 8 3 14 14 12 23 -4 22 -43 29 -51
9z"/>
<path d="M2939 3581 c-30 -11 -108 -76 -109 -88 0 -14 20 -17 36 -5 5 4 -6 -8
-25 -27 -31 -31 -33 -35 -17 -47 16 -11 14 -16 -18 -62 -37 -50 -44 -76 -26
-87 6 -3 10 -12 10 -18 0 -7 -5 -4 -11 6 -11 18 -59 24 -59 6 0 -5 4 -8 9 -5
5 4 7 -4 4 -15 -4 -16 -2 -20 8 -17 8 3 22 1 32 -4 16 -8 16 -11 2 -31 -20
-29 -19 -53 5 -77 11 -11 16 -20 11 -20 -5 0 -8 -8 -7 -17 1 -12 -7 -17 -24
-18 -32 0 -53 20 -46 43 8 24 -29 72 -55 72 -25 0 -91 -49 -83 -62 3 -5 13 -4
22 4 15 12 16 11 3 -4 -10 -13 -23 -16 -55 -13 -35 4 -39 3 -24 -8 13 -11 15
-16 5 -26 -9 -9 -7 -13 11 -17 27 -8 27 -9 1 -46 -25 -35 -18 -49 12 -22 22
19 22 19 8 -3 -17 -28 -3 -43 15 -17 46 63 42 61 73 42 15 -9 29 -22 29 -27 1
-6 2 -18 3 -27 1 -10 9 -14 24 -12 13 1 35 -5 50 -15 23 -15 25 -20 15 -37
-17 -27 1 -55 36 -55 31 1 30 2 11 -35 -8 -16 -12 -36 -9 -44 3 -8 36 -36 74
-62 66 -45 96 -51 83 -17 -8 20 -5 18 100 -54 42 -29 84 -53 92 -53 32 0 26
25 -16 62 l-44 39 45 -29 c44 -29 70 -32 70 -7 0 7 -25 32 -56 55 -30 23 -53
44 -50 47 3 3 11 1 18 -4 17 -14 74 -9 71 5 -2 7 6 12 18 12 11 0 17 5 14 10
-9 15 45 34 59 20 7 -7 4 -10 -10 -10 -15 0 -26 -14 -41 -50 -14 -33 -18 -52
-11 -56 6 -4 14 0 19 8 4 8 16 24 26 34 10 11 14 13 9 4 -8 -13 -7 -13 8 1 22
20 28 69 10 76 -8 3 -11 10 -7 16 4 6 0 8 -11 4 -10 -4 -15 -3 -11 3 3 6 17
10 30 10 23 0 42 27 28 40 -4 4 -39 26 -77 49 -39 22 -63 41 -55 41 8 0 40
-16 72 -35 32 -19 66 -35 76 -35 22 0 35 26 20 36 -7 4 -1 16 16 31 24 23 25
27 11 42 -60 64 -76 86 -76 99 0 9 -6 12 -16 8 -9 -3 -17 -6 -20 -6 -2 0 -1
-6 2 -14 6 -17 -12 -31 -21 -16 -9 15 -25 12 -25 -6 0 -8 -4 -13 -10 -9 -5 3
-7 12 -4 19 4 10 -10 18 -50 27 -51 11 -76 29 -42 29 8 0 27 11 42 25 31 29
58 75 43 75 -5 0 0 14 13 30 l22 30 -26 27 -26 26 -32 -23 c-22 -16 -28 -25
-20 -30 9 -6 7 -11 -6 -19 -14 -8 -15 -11 -4 -11 12 0 12 -2 -2 -10 -9 -6 -19
-23 -23 -39 -4 -20 -11 -28 -23 -26 -9 2 -20 4 -23 4 -4 1 -6 9 -5 19 0 9 -4
16 -9 15 -15 -2 -18 56 -4 73 6 8 15 11 19 9 5 -3 21 10 35 29 22 29 24 38 15
55 -7 14 -7 21 0 21 19 0 10 39 -11 45 -11 4 -18 12 -16 18 2 7 -6 21 -19 32
-12 11 -24 28 -26 38 -4 24 -78 67 -99 58z m-9 -44 c0 -2 -10 -12 -22 -23
l-23 -19 19 23 c18 21 26 27 26 19z m61 -90 c-10 -9 -11 -8 -5 6 3 10 9 15 12
12 3 -3 0 -11 -7 -18z m-9 -42 c-2 -15 0 -25 7 -25 6 0 17 11 23 25 14 30 28
31 59 4 l24 -20 -24 12 c-22 10 -27 8 -52 -22 -30 -36 -35 -49 -19 -49 6 0 3
-11 -6 -25 -14 -22 -22 -25 -48 -20 -26 5 -29 4 -15 -7 9 -7 15 -21 13 -31 -3
-19 31 -47 57 -47 9 0 22 -6 28 -14 11 -13 8 -13 -21 -6 -18 6 -45 7 -58 4
-14 -3 -33 -6 -43 -7 -10 -1 -21 -8 -26 -15 -6 -10 -10 -7 -15 11 -3 14 -15
29 -26 32 -19 6 -29 45 -12 45 4 0 22 23 41 50 35 51 48 59 68 39 7 -7 12 -3
17 15 15 61 38 102 28 51z m-102 -28 c0 -2 -11 -18 -25 -37 -14 -19 -25 -29
-25 -24 0 5 10 22 22 37 20 25 28 32 28 24z m173 -258 c22 -6 37 -12 34 -15
-2 -2 -28 2 -58 10 -30 8 -45 15 -34 15 11 1 37 -4 58 -10z m-288 -129 c13 -5
32 -7 40 -4 8 4 16 1 16 -5 3 -26 4 -30 11 -36 4 -4 -2 -17 -13 -28 -18 -20
-20 -20 -37 -3 -16 16 -16 17 3 10 13 -5 9 1 -10 16 -41 32 -54 45 -35 36 13
-7 13 -6 0 6 -8 7 -16 24 -17 38 -3 25 -3 25 7 2 5 -12 21 -27 35 -32z m91 23
c9 -16 42 -54 72 -85 54 -56 82 -66 82 -27 0 26 5 24 45 -18 36 -40 36 -40 64
6 7 11 22 6 75 -24 36 -20 66 -39 66 -41 0 -3 -10 -8 -22 -13 -27 -10 -49 4
-41 25 3 8 2 14 -2 14 -15 0 -65 -35 -65 -46 0 -6 -6 -17 -14 -24 -8 -6 -14
-17 -12 -23 1 -7 1 -9 -1 -5 -3 5 -13 3 -23 -2 -21 -11 -32 6 -24 37 4 13 -11
29 -60 61 -36 24 -71 45 -78 46 -23 3 -63 51 -62 74 1 13 -7 27 -17 33 -11 5
-19 16 -19 24 0 23 16 18 36 -12z m107 -36 c10 -10 17 -20 15 -23 -3 -2 -20
13 -39 33 -33 36 -15 28 24 -10z m24 -167 c26 -16 43 -30 38 -30 -10 0 -95 49
-95 55 0 9 10 5 57 -25z m-70 -95 c18 -11 33 -24 33 -29 0 -5 -6 -4 -12 1 -78
58 -83 66 -21 28z"/>
<path d="M2402 3333 c-6 -3 -10 -9 -6 -14 3 -5 -1 -12 -10 -15 -8 -3 -12 -12
-9 -20 4 -10 10 -11 24 -3 10 5 19 7 19 3 0 -3 7 -1 15 6 8 7 12 16 9 21 -3 5
0 9 5 9 6 0 11 4 11 9 0 9 -36 11 -58 4z"/>
<path d="M3202 3328 c5 -15 28 -18 29 -3 0 6 -7 12 -17 13 -10 3 -15 -1 -12
-10z"/>
<path d="M2689 3194 c-11 -14 -10 -18 6 -30 16 -12 21 -12 34 0 12 12 12 18 1
30 -16 20 -24 20 -41 0z"/>
<path d="M2560 2915 c-11 -14 -10 -17 7 -21 14 -4 19 -12 16 -24 -3 -11 4 -24
18 -34 29 -20 19 -30 -22 -21 -19 4 -27 10 -20 14 8 5 3 11 -13 19 -29 13 -63
-6 -53 -31 4 -10 -11 -41 -38 -81 l-43 -65 -38 20 c-21 10 -43 19 -50 19 -12
0 -64 -63 -64 -78 0 -17 37 -43 53 -36 9 3 29 -4 46 -17 31 -22 31 -22 46 -3
18 24 18 29 2 46 -12 11 -12 16 0 26 11 10 13 9 13 -5 0 -10 9 -33 20 -51 11
-18 18 -38 14 -43 -10 -16 17 -41 31 -29 10 8 22 0 47 -31 27 -32 39 -40 56
-35 11 4 22 14 24 22 2 11 9 9 29 -8 14 -13 28 -31 32 -40 10 -27 30 -21 49
13 l18 30 31 -18 c67 -40 124 -90 122 -108 -2 -24 34 -75 52 -75 8 0 12 -6 9
-14 -7 -18 15 -31 28 -18 8 8 8 15 -1 26 -9 11 -9 15 0 18 15 5 14 81 -1 86
-5 2 -10 10 -10 18 0 8 -4 14 -10 14 -5 0 -14 9 -20 20 -10 19 -10 19 20 2 24
-14 33 -15 50 -4 11 7 19 9 18 5 -2 -5 2 -8 7 -8 6 0 9 4 7 8 -1 4 -4 17 -5
27 -2 11 -9 26 -15 32 -7 7 -12 19 -12 27 0 11 3 11 13 -4 10 -12 16 -14 21
-7 5 9 14 7 32 -5 20 -12 28 -13 37 -4 9 10 5 18 -18 37 -16 13 -27 24 -22 24
4 0 -3 10 -15 22 -12 12 -36 22 -53 23 -18 1 -38 6 -45 10 -6 4 -16 3 -22 -3
-12 -12 -1 -35 13 -27 5 4 9 -3 9 -13 0 -11 6 -25 14 -31 16 -13 28 -51 17
-51 -24 0 -76 48 -79 73 -2 15 -8 25 -13 22 -5 -4 -9 3 -9 15 0 12 -5 18 -10
15 -6 -4 -13 7 -16 24 -5 21 -13 31 -33 36 -56 13 -253 79 -245 82 5 1 45 -8
89 -21 44 -13 85 -21 92 -19 26 10 22 33 -8 49 l-31 15 23 20 c25 22 25 23
-33 55 -16 8 -28 21 -28 29 0 9 -14 24 -32 35 -30 18 -33 18 -51 2 -13 -11
-17 -12 -15 -3 5 20 -17 24 -32 6z m29 -395 c1 -15 -17 4 -61 65 -17 24 -13
23 20 -10 23 -22 41 -47 41 -55z m252 -17 c21 -16 39 -31 39 -36 0 -9 -46 15
-80 42 -38 31 -4 25 41 -6z"/>
<path d="M1989 2894 c-5 -38 17 -94 37 -94 6 0 14 -7 18 -15 3 -8 12 -15 20
-15 10 0 13 6 10 15 -4 8 -9 13 -13 11 -3 -2 -6 9 -6 26 0 23 -8 37 -32 55
-18 14 -34 22 -34 17z"/>
<path d="M2475 2859 c-10 -15 3 -25 16 -12 7 7 7 13 1 17 -6 3 -14 1 -17 -5z"/>
<path d="M2368 2848 c-74 -26 -39 -141 38 -122 29 7 58 62 48 89 -10 26 -55
44 -86 33z"/>
<path d="M1915 2840 c-3 -5 -2 -10 4 -10 6 0 8 -7 5 -15 -7 -16 43 -68 57 -59
5 3 6 -2 3 -10 -4 -11 0 -16 10 -16 20 0 21 24 1 40 -8 7 -12 16 -9 21 3 5 -4
19 -15 31 -12 12 -21 18 -21 14 0 -5 -6 -3 -14 3 -10 8 -16 9 -21 1z"/>
<path d="M2074 2749 c-3 -5 -2 -9 3 -9 4 0 0 -5 -9 -11 -10 -5 -18 -17 -18
-25 0 -11 4 -12 18 -5 18 9 24 11 43 11 6 0 9 7 5 15 -3 8 -1 15 4 15 6 0 10
4 10 9 0 5 -11 9 -25 9 -14 0 -28 -4 -31 -9z"/>
<path d="M2240 2701 c0 -24 25 -34 40 -16 15 18 5 35 -21 35 -12 0 -19 -7 -19
-19z"/>
<path d="M2375 2700 c3 -5 10 -10 16 -10 5 0 9 5 9 10 0 6 -7 10 -16 10 -8 0
-12 -4 -9 -10z"/>
<path d="M2250 2570 c-11 -11 -20 -24 -20 -29 0 -16 30 -41 49 -41 44 0 57 60
16 78 -21 10 -28 9 -45 -8z"/>
<path d="M2132 2500 c-24 -17 -50 -29 -60 -28 -11 2 -17 -3 -16 -14 1 -10 -2
-18 -7 -18 -5 0 -6 -7 -3 -15 4 -8 13 -15 21 -15 14 0 7 -7 -46 -47 -2 -1 4
-11 13 -22 17 -18 15 -22 -29 -80 -45 -60 -51 -87 -15 -78 13 3 17 0 13 -10
-4 -9 2 -16 16 -20 11 -3 21 -9 21 -13 0 -4 18 -12 40 -19 49 -15 61 -31 21
-31 -24 0 -39 -11 -73 -51 -24 -28 -54 -56 -68 -61 -19 -7 -21 -11 -10 -18 7
-4 15 -19 17 -31 4 -25 59 -109 109 -168 28 -31 33 -34 48 -22 9 8 15 20 12
28 -11 27 14 11 50 -32 29 -36 34 -48 25 -59 -20 -24 -3 -66 29 -73 19 -3 29
-13 33 -29 2 -13 1 -21 -4 -19 -4 3 -11 0 -15 -6 -3 -6 0 -15 7 -20 9 -5 17
-3 22 7 7 12 10 12 23 -1 9 -8 20 -12 26 -9 7 4 8 2 4 -5 -4 -6 -4 -20 -1 -32
5 -16 9 -18 21 -8 12 10 13 8 8 -7 -3 -12 6 -5 26 16 17 19 28 28 24 20 -4 -8
5 -4 19 9 21 19 24 27 16 38 -8 9 -8 13 0 13 6 0 11 4 11 9 0 13 -46 7 -65 -9
-8 -7 -14 -20 -13 -28 2 -9 -5 -18 -16 -20 -17 -4 -17 -2 -3 18 15 22 14 65
-3 85 -5 6 -3 17 4 27 12 16 16 15 53 -12 35 -26 42 -28 58 -16 28 20 13 40
-79 108 -47 34 -83 65 -80 70 5 7 71 -37 147 -99 65 -52 104 -10 42 44 -21 18
-36 33 -34 34 43 8 58 7 69 -6 15 -18 44 -20 34 -2 -3 6 8 -4 25 -23 l31 -35
0 41 c0 36 -17 69 -31 61 -2 -1 0 3 6 8 6 6 28 34 49 63 38 53 60 72 31 28
-23 -34 -2 -42 24 -10 25 32 26 47 5 65 -14 11 -13 14 7 30 32 24 19 53 -20
46 -20 -4 -31 -2 -34 7 -4 10 0 12 14 9 14 -4 19 0 19 17 0 19 -4 21 -32 15
-18 -4 -30 -4 -26 0 4 4 -6 18 -23 32 -24 20 -32 23 -44 13 -11 -9 -15 -9 -15
-1 0 6 -9 11 -20 11 -11 0 -20 -4 -20 -10 0 -5 -13 -25 -30 -43 -30 -35 -40
-64 -17 -51 6 4 0 -6 -15 -22 -16 -16 -38 -29 -50 -29 -24 0 -27 -13 -12 -49
6 -17 4 -18 -21 -12 -16 4 -45 15 -64 23 -32 15 -33 17 -14 20 12 3 25 12 28
21 9 27 53 72 70 72 9 0 15 9 15 23 0 18 2 19 10 7 9 -13 12 -13 21 3 6 9 15
15 20 11 7 -4 10 7 9 27 -1 19 -1 39 0 44 1 6 2 13 1 18 -2 12 16 8 29 -8 15
-18 36 -19 46 -4 6 11 -31 50 -80 85 -11 7 -18 15 -15 18 7 7 254 -195 261
-215 6 -15 17 -19 55 -19 35 0 44 3 33 10 -10 7 -11 10 -2 11 33 4 37 6 35 17
-2 6 11 15 29 20 35 9 42 20 29 41 -7 11 -15 11 -40 3 -17 -6 -31 -8 -31 -3 0
4 -36 34 -79 67 -44 32 -83 66 -86 74 -5 12 -4 13 6 3 7 -7 24 -13 36 -13 13
0 36 -11 51 -25 29 -27 38 -30 47 -16 3 5 -5 17 -17 25 -12 9 -19 16 -15 16 4
0 33 -19 63 -42 41 -30 58 -38 66 -30 9 9 7 17 -8 34 l-19 23 21 -18 c18 -15
23 -15 33 -3 10 11 1 21 -46 55 -32 23 -53 41 -46 41 6 0 15 -5 18 -10 7 -11
25 -4 25 9 0 4 -13 17 -30 29 -24 18 -33 20 -54 11 -20 -10 -28 -9 -41 5 -11
11 -22 13 -33 7 -12 -6 -24 -3 -41 10 -17 14 -27 17 -35 9 -17 -17 -36 -12
-76 20 -21 17 -50 30 -65 30 -19 0 -26 4 -22 14 6 15 -22 46 -42 46 -13 0 -57
-26 -84 -51 -11 -10 -17 -28 -15 -47 1 -16 -3 -37 -10 -45 -21 -25 28 -31 51
-7 28 31 41 23 17 -11 -16 -21 -20 -38 -16 -57 4 -15 7 -42 6 -61 0 -19 5 -38
12 -43 10 -6 6 -14 -14 -29 -28 -21 -39 -46 -15 -34 6 4 1 -2 -12 -13 -15 -12
-19 -21 -12 -23 9 -3 5 -13 -10 -33 -18 -23 -19 -30 -8 -36 25 -16 1 -22 -28
-8 -15 8 -47 20 -70 28 -36 11 -40 15 -27 27 8 9 22 12 35 8 23 -7 59 18 59
42 0 8 13 28 30 46 16 18 30 39 30 48 0 9 -18 32 -40 52 -44 39 -45 40 -29
102 14 55 6 84 -30 112 -47 37 -72 38 -119 3z m430 -115 c16 -14 25 -25 19
-25 -12 0 -69 49 -57 50 4 0 21 -11 38 -25z m-348 -59 c-4 -18 -1 -27 16 -36
l21 -11 -23 -24 c-13 -13 -24 -29 -24 -34 -1 -6 -2 -14 -3 -18 0 -4 -15 6 -32
23 -30 28 -32 28 -26 6 4 -19 3 -21 -9 -11 -24 20 -15 -6 10 -30 27 -25 28
-54 2 -59 -11 -2 -19 4 -23 17 -3 12 -10 21 -16 21 -6 0 -7 3 -4 7 4 3 0 11
-8 17 -14 10 -13 15 8 43 22 30 25 31 45 17 20 -14 22 -13 36 19 7 19 17 43
20 55 10 30 18 28 10 -2z m-124 -35 c0 -13 -51 -73 -57 -67 -3 3 7 17 21 33
14 15 26 31 26 35 0 5 2 8 5 8 3 0 5 -4 5 -9z m761 -8 c13 -16 12 -17 -3 -4
-17 13 -22 21 -14 21 2 0 10 -8 17 -17z m-151 -95 l45 -40 -45 31 c-25 17 -58
43 -75 57 l-30 25 30 -16 c17 -9 50 -35 75 -57z m-380 29 c0 -2 -12 -14 -27
-28 l-28 -24 24 28 c23 25 31 32 31 24z m-146 -122 c-4 -8 -14 -15 -23 -15
-14 1 -13 3 3 15 25 19 27 19 20 0z m373 -73 c-10 -10 -17 -25 -17 -33 0 -8
13 0 31 19 38 40 58 30 32 -16 -17 -30 -11 -60 7 -32 6 8 10 11 10 5 -1 -5
-14 -28 -30 -49 -48 -63 -34 -93 16 -38 l26 27 -21 -29 c-12 -16 -21 -36 -21
-46 0 -9 -3 -20 -7 -23 -10 -11 -32 13 -26 29 3 8 0 14 -6 14 -6 0 -11 7 -11
15 0 8 -5 15 -12 15 -7 0 -23 12 -35 27 -22 25 -22 27 -6 47 32 39 77 86 82
86 2 0 -3 -8 -12 -18z m-335 -17 c31 -10 55 -22 53 -25 -5 -8 -119 30 -132 44
-4 5 -1 7 7 4 8 -3 41 -14 72 -23z m268 -8 c0 -2 -10 -12 -22 -23 l-23 -19 19
23 c18 21 26 27 26 19z m-86 -112 c-7 -17 34 -78 47 -70 5 4 9 1 9 -4 0 -6 -3
-11 -7 -11 -5 0 -46 29 -82 57 -4 3 29 43 35 43 2 0 1 -7 -2 -15z m-274 -79
c0 -12 -14 5 -31 39 -8 16 -6 15 10 -4 12 -13 21 -28 21 -35z m175 -86 c0 -9
-7 -14 -18 -12 -10 2 -26 -3 -35 -10 -13 -11 -15 -11 -7 2 17 31 29 41 44 38
9 -2 16 -10 16 -18z m30 -10 c3 -5 1 -10 -4 -10 -6 0 -11 5 -11 10 0 6 2 10 4
10 3 0 8 -4 11 -10z"/>
<path d="M2324 2305 c-7 -18 3 -35 21 -35 18 0 26 25 12 39 -15 15 -27 14 -33
-4z"/>
<path d="M3224 2265 c-7 -18 3 -35 21 -35 18 0 26 25 12 39 -15 15 -27 14 -33
-4z"/>
<path d="M3151 2246 c-22 -23 -28 -42 -11 -31 21 13 9 -7 -22 -34 l-32 -28 21
-22 21 -23 44 39 c23 21 37 31 30 21 -21 -26 3 -30 28 -3 l22 24 -26 34 c-35
46 -49 50 -75 23z m-1 -80 c0 -2 -8 -10 -17 -17 -16 -13 -17 -12 -4 4 13 16
21 21 21 13z"/>
<path d="M1850 2211 c0 -6 4 -12 10 -16 5 -3 7 -12 3 -20 -4 -13 6 -19 29 -17
3 1 11 -5 18 -13 9 -11 9 -18 -4 -30 -41 -41 -6 -121 46 -108 37 9 58 34 58
68 0 37 -16 54 -54 57 -26 2 -38 18 -13 18 6 1 1 10 -13 21 -14 12 -24 24 -23
28 1 3 -7 6 -17 5 -11 0 -20 3 -20 8 0 4 -4 8 -10 8 -5 0 -10 -4 -10 -9z"/>
<path d="M2960 2131 c0 -23 25 -34 39 -17 7 9 7 16 -1 24 -18 18 -38 14 -38
-7z"/>
<path d="M1802 2124 c4 -21 22 -23 26 -1 2 10 -3 17 -13 17 -10 0 -15 -6 -13
-16z"/>
<path d="M3010 2108 c-11 -18 -20 -38 -20 -44 0 -7 -30 -24 -67 -40 -99 -41
-126 -68 -80 -79 14 -4 51 6 96 25 40 17 75 29 77 27 5 -4 -199 -97 -214 -97
-4 0 -16 -7 -26 -15 -19 -15 -19 -15 5 -41 l24 -25 -45 -37 c-102 -85 -131
-117 -125 -134 8 -21 38 -23 57 -5 7 6 33 28 58 48 25 20 56 46 69 58 13 12
27 18 30 15 3 -3 -16 -25 -43 -48 -123 -103 -131 -113 -117 -130 7 -9 19 -16
26 -16 7 0 51 31 97 69 l83 70 28 -27 c17 -16 31 -23 35 -16 97 142 155 224
158 224 6 0 -9 -28 -50 -90 -40 -60 -43 -72 -22 -89 11 -10 21 -3 48 31 56 72
98 148 98 176 0 11 -8 30 -19 43 -10 13 -24 35 -31 48 l-13 24 28 -21 c50 -40
105 -20 105 38 0 33 -21 57 -58 67 -21 5 -31 0 -52 -25 l-25 -31 -25 21 c-14
11 -19 17 -12 13 21 -11 13 13 -10 29 -33 23 -46 20 -68 -16z"/>
<path d="M3295 2131 c-3 -5 -1 -12 5 -16 12 -7 30 2 30 16 0 12 -27 12 -35 0z"/>
<path d="M1746 2099 c-14 -11 -24 -24 -21 -29 3 -5 1 -11 -5 -15 -6 -4 -8 -11
-4 -16 3 -6 -2 -19 -11 -29 -15 -17 -16 -21 -2 -34 13 -14 17 -13 31 10 9 13
21 22 27 19 5 -4 13 4 18 17 6 13 10 17 11 8 0 -9 7 -3 16 13 18 33 14 51 -14
66 -16 8 -26 6 -46 -10z"/>
<path d="M3321 2106 c-17 -20 -4 -62 25 -81 13 -8 24 -12 24 -8 0 4 14 -6 32
-23 19 -18 29 -23 25 -12 -5 13 -2 15 11 11 13 -5 11 1 -7 20 -12 14 -20 30
-17 36 4 5 2 12 -4 16 -6 4 -8 10 -5 15 6 9 -38 40 -58 40 -8 0 -20 -6 -26
-14z"/>
<path d="M2276 2101 c-7 -11 18 -33 27 -24 4 3 7 12 7 20 0 15 -26 18 -34 4z"/>
<path d="M3336 1982 c-3 -6 -1 -14 5 -17 15 -10 25 3 12 16 -7 7 -13 7 -17 1z"/>
<path d="M1815 1970 c-3 -6 1 -13 9 -16 9 -3 14 -9 12 -13 -9 -13 30 -50 57
-55 16 -3 35 -10 42 -16 9 -8 14 -7 18 4 7 17 -8 30 -22 22 -5 -4 -7 2 -4 12
6 23 -28 54 -61 56 -14 0 -26 4 -26 9 0 10 -18 9 -25 -3z"/>
<path d="M1759 1963 c-1 -5 -1 -11 0 -15 0 -5 -8 -8 -19 -8 -13 0 -18 -5 -14
-15 8 -19 -1 -19 -30 1 -17 10 -26 12 -31 4 -5 -8 -11 -5 -20 7 -13 17 -14 17
-21 -1 -5 -12 -3 -21 4 -24 6 -2 8 -10 5 -18 -6 -16 36 -55 53 -49 7 2 22 -7
35 -21 12 -13 28 -24 35 -24 19 0 27 19 15 34 -19 22 -2 24 40 3 32 -15 37
-22 28 -33 -9 -11 -8 -18 2 -31 13 -15 12 -15 -11 0 -24 15 -27 15 -54 -2 -15
-10 -36 -16 -47 -14 -21 6 -26 23 -7 23 27 0 -20 29 -71 44 l-55 16 -33 -32
c-38 -37 -41 -65 -13 -101 12 -15 17 -32 13 -42 -4 -11 0 -21 11 -27 16 -9 15
-12 -12 -28 -32 -20 -112 -119 -112 -138 0 -18 -9 -15 -47 14 l-35 26 -39 -38
c-21 -21 -39 -44 -39 -50 0 -7 14 -22 30 -34 26 -19 30 -19 30 -5 0 13 8 10
35 -14 39 -34 55 -39 55 -17 0 7 9 16 20 19 16 4 32 -10 78 -69 42 -55 62 -74
77 -72 30 5 30 34 -3 76 -16 20 -33 44 -37 52 -20 34 27 -15 91 -96 64 -81 68
-84 86 -68 28 26 34 8 11 -34 -21 -39 -21 -62 2 -62 22 0 27 -17 13 -40 -12
-19 -10 -25 22 -51 24 -20 37 -26 45 -18 7 7 2 16 -15 30 -14 12 -18 17 -10
13 8 -4 38 -27 66 -51 42 -35 54 -41 63 -30 6 8 8 17 4 20 -3 4 1 7 10 7 8 0
18 6 20 13 4 10 6 9 6 0 2 -27 21 -12 21 16 0 40 -9 61 -27 61 -8 0 -11 5 -8
10 3 6 1 10 -4 10 -11 0 -15 -21 -11 -50 2 -15 -9 -7 -70 49 l-25 23 28 -17
c41 -26 47 -8 9 26 -17 16 -32 33 -32 39 0 5 -7 10 -15 10 -8 0 -14 6 -13 13
2 6 -2 11 -9 10 -6 -1 -14 4 -17 12 -9 23 -1 19 86 -45 84 -63 120 -73 126
-35 2 15 -19 36 -84 85 -120 91 -118 89 -111 96 4 4 48 -24 99 -63 103 -78
121 -86 137 -70 12 12 15 47 4 47 -13 1 -78 60 -67 60 6 0 20 -9 33 -21 22
-20 51 -20 51 1 0 6 -12 22 -27 37 -16 14 3 2 40 -27 62 -47 97 -58 97 -31 0
5 -17 23 -37 40 -48 40 -38 41 12 1 56 -45 78 -20 28 32 -26 28 -27 28 -4 28
12 0 20 4 16 9 -3 5 -1 12 4 15 5 4 12 2 16 -4 10 -16 42 -12 49 6 4 9 1 22
-5 30 -8 10 -5 13 17 11 59 -4 38 28 -88 138 -125 108 -170 158 -83 91 53 -40
63 -43 72 -20 3 9 -3 21 -16 30 -12 9 -47 38 -78 65 -73 64 -94 64 -155 2 -73
-77 -80 -104 -33 -143 9 -7 13 -21 10 -31 -4 -11 -2 -19 5 -19 6 0 8 -4 5 -10
-3 -5 0 -10 9 -10 8 0 16 6 19 13 3 8 14 3 34 -15 16 -16 34 -28 40 -28 25 0
24 23 -3 51 -33 34 -26 39 9 7 14 -13 48 -43 76 -67 56 -47 61 -62 12 -37 -41
22 -45 21 -85 -21 -20 -21 -36 -33 -36 -27 0 6 7 17 15 24 21 17 1 50 -29 50
-24 0 -41 -24 -30 -41 3 -6 -6 -19 -21 -31 -16 -12 -24 -26 -20 -36 5 -13 3
-13 -15 -1 -25 17 -24 35 1 31 47 -8 19 59 -33 77 -21 7 -28 15 -24 26 8 22
-11 66 -33 72 -13 3 -17 11 -13 30 4 19 -2 31 -24 50 l-29 25 33 -22 c26 -17
36 -20 45 -11 9 10 7 17 -10 30 -15 12 -18 22 -12 32 7 12 9 12 9 -1 1 -8 8
-2 16 14 9 16 19 24 23 19 25 -38 92 -13 84 32 -5 24 -31 47 -50 44 -20 -3
-24 2 -12 17 11 13 10 18 -8 32 -11 10 -23 25 -26 35 -4 10 -12 15 -17 12 -6
-4 -9 -1 -8 7 2 7 -4 13 -12 13 -16 0 -34 31 -31 53 1 6 -3 12 -9 12 -5 0 -11
-3 -11 -7z m-22 -85 c-3 -8 -6 -5 -6 6 -1 11 2 17 5 13 3 -3 4 -12 1 -19z
m-77 -88 c8 -5 11 -10 5 -10 -5 0 -17 5 -25 10 -8 5 -10 10 -5 10 6 0 17 -5
25 -10z m36 -149 c-6 -10 17 -33 30 -30 17 4 44 -13 44 -27 0 -16 -30 -11 -90
14 -23 10 -30 17 -20 20 8 3 19 11 23 18 4 8 10 14 13 14 3 0 3 -4 0 -9z m47
-128 c9 -3 17 -9 17 -14 0 -9 -109 28 -125 42 -5 5 13 2 40 -7 28 -8 58 -18
68 -21z m517 -90 c0 -7 -23 10 -62 45 -21 19 -47 41 -58 49 -11 8 -20 19 -20
25 0 5 32 -18 70 -52 39 -34 70 -64 70 -67z m-832 -48 c-3 -3 -9 2 -12 12 -6
14 -5 15 5 6 7 -7 10 -15 7 -18z m132 15 c0 -5 -2 -10 -4 -10 -3 0 -8 5 -11
10 -3 6 -1 10 4 10 6 0 11 -4 11 -10z m384 -399 c-3 -3 -15 6 -27 18 l-22 24
27 -19 c14 -10 24 -21 22 -23z"/>
<path d="M3275 1953 c-8 -10 -14 -21 -13 -25 2 -4 -7 -15 -19 -23 -30 -21 -20
-50 10 -33 12 7 25 13 30 14 4 1 10 3 15 4 4 1 10 2 13 2 12 -2 32 47 26 62
-8 21 -44 20 -62 -1z"/>
<path d="M3530 1951 c0 -5 -8 -7 -18 -4 -10 2 -30 -7 -47 -23 -20 -19 -24 -25
-11 -21 17 7 17 6 5 -10 -8 -10 -24 -26 -36 -36 -19 -15 -21 -21 -10 -37 11
-19 13 -18 42 10 17 17 35 27 39 23 10 -11 59 46 52 62 -3 8 -1 17 4 20 15 9
12 25 -5 25 -8 0 -15 -4 -15 -9z"/>
<path d="M3343 1897 c-9 -9 -13 -20 -10 -24 4 -3 -6 -17 -21 -30 -22 -19 -25
-25 -12 -33 10 -6 21 -3 35 10 12 11 26 20 32 20 16 0 46 38 38 49 -3 6 -1 11
4 11 6 0 11 4 11 9 0 15 -61 6 -77 -12z"/>
<path d="M3644 1886 c-8 -21 15 -58 33 -54 26 5 39 34 24 52 -17 20 -50 21
-57 2z"/>
<path d="M3533 1853 c-58 -23 -81 -43 -51 -43 7 0 1 -8 -12 -17 -14 -9 -26
-17 -28 -19 -2 -1 1 -12 8 -23 6 -12 7 -21 3 -21 -20 -1 -84 -73 -79 -87 6
-14 9 -14 26 2 24 21 27 11 4 -12 -12 -13 -13 -18 -3 -24 9 -5 29 5 57 28 40
32 45 34 72 23 16 -7 36 -10 44 -7 8 3 17 0 19 -8 7 -16 -1 -25 -22 -25 -28 0
-213 -83 -219 -99 -3 -7 3 -20 12 -27 15 -10 29 -7 89 18 40 16 83 34 97 39
22 8 23 8 8 -4 -10 -8 -78 -40 -153 -72 l-135 -57 25 -30 c14 -16 23 -34 19
-39 -3 -5 -43 -41 -90 -80 -47 -39 -88 -78 -91 -86 -3 -8 1 -21 9 -30 16 -16
40 -9 70 19 43 41 118 98 128 98 7 0 -6 -17 -30 -37 -107 -93 -129 -115 -124
-128 7 -18 32 -27 49 -18 15 9 79 61 143 116 l44 38 27 -32 28 -32 59 81 c32
45 60 79 62 77 3 -2 -3 -16 -12 -29 -20 -31 -20 -50 -2 -65 12 -10 19 -8 35 8
12 12 21 16 21 9 0 -7 -25 -37 -55 -66 -49 -48 -56 -52 -74 -40 -12 7 -21 15
-21 19 0 15 -60 -5 -65 -22 -9 -28 4 -42 35 -35 29 5 57 -14 46 -33 -4 -5 0
-14 9 -18 13 -7 9 -15 -20 -43 -30 -29 -37 -32 -45 -20 -6 9 -5 19 0 24 19 19
9 48 -30 87 -21 21 -45 39 -52 39 -7 0 -26 -12 -41 -26 -21 -20 -26 -29 -17
-38 7 -7 13 -7 18 -1 4 6 16 16 27 24 11 7 3 -3 -19 -23 -21 -19 -42 -33 -47
-31 -13 9 -39 -55 -30 -74 4 -9 7 -27 6 -39 -1 -13 4 -26 12 -29 7 -3 10 -9 7
-14 -3 -5 1 -9 9 -9 8 0 20 -19 27 -42 7 -24 15 -38 17 -31 2 7 11 9 19 6 16
-6 18 14 5 51 -7 17 -7 26 1 28 8 3 7 11 -2 27 -7 15 -8 21 -1 17 15 -10 14
17 -1 32 -9 9 -9 12 3 12 8 0 23 -10 33 -21 17 -21 17 -22 -3 -50 -11 -15 -18
-35 -15 -43 7 -19 35 -21 52 -4 7 7 12 8 12 2 0 -5 -5 -15 -10 -20 -15 -15 -1
-44 20 -44 10 0 23 7 30 16 8 8 21 19 30 24 12 7 16 3 18 -15 1 -14 -5 -26
-16 -30 -36 -13 -82 -51 -82 -67 0 -12 10 -18 36 -20 l36 -3 -21 -24 c-22 -25
-20 -32 12 -68 35 -39 53 -20 21 21 -10 12 13 -10 50 -48 l68 -68 36 33 37 34
-34 -37 c-29 -31 -32 -40 -21 -53 10 -12 10 -15 -4 -15 -10 0 -14 -4 -11 -10
9 -15 76 -5 90 13 7 9 15 14 18 10 4 -3 7 1 7 10 0 11 -5 14 -17 10 -11 -4
-14 -3 -9 5 4 7 16 12 27 12 10 0 19 4 19 10 0 5 6 7 14 4 9 -3 20 9 32 35 21
45 51 59 70 33 11 -15 1 -28 -78 -102 l-90 -85 19 -24 19 -24 39 34 c22 19 64
57 94 86 31 28 59 49 64 46 4 -3 -33 -44 -83 -91 -70 -66 -90 -91 -85 -104 11
-27 46 -21 82 14 37 36 49 32 68 -24 6 -18 16 -32 23 -31 7 2 12 -6 12 -18 0
-11 5 -17 10 -14 6 3 10 -3 10 -14 0 -12 7 -21 15 -21 20 0 19 -5 -6 -40 -23
-31 -20 -60 7 -60 16 0 27 10 132 124 28 31 52 53 52 48 0 -5 -33 -44 -72 -87
-87 -93 -93 -102 -78 -121 19 -22 35 -17 70 24 31 37 35 39 81 34 33 -3 49 -1
49 7 0 6 7 11 15 11 8 0 15 7 15 15 0 8 8 15 18 15 10 0 27 7 38 16 18 15 18
15 0 10 -16 -6 -17 -4 -6 9 10 12 10 15 0 15 -7 0 15 29 48 64 79 82 80 99 10
166 -73 68 -101 79 -137 52 -27 -19 -25 -16 18 62 29 53 51 82 59 78 7 -2 11
-11 8 -19 -3 -7 1 -16 9 -19 8 -4 12 -10 10 -15 -3 -4 3 -14 13 -20 17 -11 18
-15 5 -40 -22 -44 4 -76 57 -69 21 2 30 13 35 39 2 13 10 30 16 37 18 22 -4
42 -26 24 -14 -12 -14 -8 2 19 10 19 21 32 25 30 3 -2 19 7 34 21 15 14 24 20
20 13 -4 -8 2 -15 19 -19 13 -3 22 -10 19 -15 -3 -5 4 -9 15 -9 12 0 21 5 21
10 0 6 7 10 16 8 10 -2 19 3 22 11 3 10 0 12 -12 8 -10 -4 -16 -1 -16 8 0 16
-8 18 -52 15 -34 -2 -55 9 -38 20 23 14 1 31 -23 18 -12 -6 -28 -14 -36 -18
-8 -3 -17 -13 -20 -21 -4 -12 -1 -12 15 1 19 14 19 14 1 -7 -18 -21 -19 -21
-38 -2 -23 23 -24 30 -4 23 9 -4 15 0 15 9 0 8 5 17 12 19 15 5 3 37 -17 45
-19 7 -67 -16 -59 -29 3 -4 1 -8 -5 -8 -5 0 -11 -7 -13 -15 -2 -11 -13 -6 -43
19 -22 19 -36 38 -32 42 4 5 12 2 16 -5 5 -8 14 -10 21 -6 7 4 15 3 19 -4 9
-14 77 22 73 39 -2 8 3 10 14 6 16 -6 33 8 34 27 0 12 -38 8 -43 -5 -4 -10 -6
-10 -6 0 -1 7 -7 20 -13 27 -35 39 -36 41 -22 60 9 12 14 14 14 6 0 -11 3 -11
15 -1 9 7 14 19 11 26 -3 7 0 16 5 20 6 3 -4 18 -23 34 -24 21 -37 26 -50 19
-10 -5 -15 -15 -12 -23 3 -7 -2 -16 -12 -20 -13 -5 -14 -9 -4 -21 7 -8 16 -12
21 -9 15 9 10 -13 -6 -26 -8 -6 -19 -9 -24 -5 -16 9 -63 -42 -61 -68 3 -38 1
-39 -34 -18 -18 12 -41 21 -50 21 -21 0 -20 6 4 32 23 25 27 46 5 28 -13 -11
-14 -10 -9 4 9 24 -11 20 -28 -6 -14 -21 -16 -21 -32 -6 -16 17 -22 40 -8 36
17 -5 51 24 61 54 l12 33 28 -32 c28 -32 54 -42 65 -24 3 5 -10 26 -28 47 -45
50 -39 56 8 9 30 -30 40 -34 51 -25 8 7 15 14 15 15 0 1 -20 24 -44 51 -45 49
-61 85 -43 103 6 6 -4 18 -29 34 -22 13 -61 38 -89 55 -27 18 -47 32 -42 32 4
0 25 -11 46 -24 47 -30 76 -36 76 -16 0 19 -121 93 -153 93 -13 0 -38 -14 -55
-31 -29 -27 -57 -33 -57 -11 0 4 6 6 14 3 9 -3 21 5 31 20 22 34 6 66 -35 66
-31 0 -41 -16 -48 -78 -1 -8 -10 -10 -26 -6 -15 4 -25 1 -29 -9 -4 -10 2 -17
19 -21 13 -4 24 -11 24 -16 0 -18 38 -11 43 8 2 11 8 2 15 -23 18 -64 65 -149
85 -153 20 -4 24 27 5 46 -6 6 -9 14 -6 17 2 3 17 -17 32 -45 27 -50 27 -50 9
-74 l-19 -24 -40 34 c-21 19 -44 32 -50 30 -7 -3 -22 3 -34 11 -18 13 -27 14
-41 4 -12 -7 -19 -7 -19 -1 0 5 -16 28 -35 49 l-36 39 39 -5 c33 -4 39 -2 50
21 14 32 6 55 -25 67 -28 10 -63 -4 -63 -25 0 -8 -6 -16 -14 -19 -9 -4 -12 0
-9 13 3 10 -3 32 -13 49 -20 34 -36 41 -28 14 2 -10 -1 -8 -7 4 -10 19 -8 28
14 60 40 58 44 89 17 126 -13 18 -30 36 -37 40 -7 5 -11 13 -7 18 4 6 14 5 27
-4 42 -27 68 -27 93 -2 47 47 17 115 -49 115 -35 0 -84 -39 -70 -55 5 -5 0 -4
-9 3 -13 11 -20 11 -37 0 -24 -15 -39 -4 -21 17 10 12 9 16 -3 21 -12 4 -9 15
19 57 40 60 41 69 13 108 -33 47 -47 50 -116 22z m-3 -37 c0 -2 -7 -7 -16 -10
-8 -3 -12 -2 -9 4 6 10 25 14 25 6z m76 -84 c-17 -16 -18 -16 -5 5 7 12 15 20
18 17 3 -2 -3 -12 -13 -22z m-116 -25 c0 -2 -15 -14 -32 -27 l-33 -23 24 26
c21 23 41 35 41 24z m160 -306 c-11 -21 -30 -37 -30 -25 0 8 30 44 37 44 2 0
-1 -9 -7 -19z m350 -195 c0 -6 -7 -1 -15 10 -8 10 -15 23 -15 28 0 6 7 1 15
-10 8 -10 15 -23 15 -28z m-375 -56 c-16 -16 -33 -30 -39 -30 -5 0 3 14 19 30
16 17 33 30 39 30 5 0 -3 -13 -19 -30z m350 -100 c10 -11 16 -20 13 -20 -3 0
-13 9 -23 20 -10 11 -16 20 -13 20 3 0 13 -9 23 -20z m-279 -30 c-20 -22 -36
-47 -36 -55 0 -17 25 -20 35 -5 4 6 12 4 22 -5 12 -13 18 -13 31 -3 14 12 14
11 2 -9 -12 -19 -12 -27 3 -57 9 -20 22 -36 27 -36 6 0 8 6 5 13 -4 6 1 3 10
-8 9 -11 23 -19 31 -17 8 2 23 -6 32 -18 17 -21 52 -20 52 2 0 5 5 6 10 3 17
-11 11 10 -10 33 -11 12 -20 30 -20 42 0 11 -4 20 -10 20 -5 0 -7 6 -4 13 6
17 -52 50 -77 44 -12 -3 -19 0 -19 9 0 17 -22 18 -39 2 -10 -11 -11 -10 -6 2
3 8 25 28 48 44 33 23 38 24 22 7 -16 -19 -17 -24 -5 -31 20 -13 26 -12 44 5
12 12 17 13 23 3 16 -26 73 -71 80 -65 3 4 -7 22 -23 40 l-29 32 35 -31 c114
-100 111 -97 100 -131 -7 -19 -22 -36 -41 -43 -16 -7 -41 -22 -55 -32 -20 -16
-22 -23 -13 -34 17 -21 32 -18 117 21 41 20 80 34 85 32 16 -5 -186 -94 -228
-101 -40 -5 -43 -3 -115 66 -41 39 -65 63 -52 53 40 -32 38 -5 -3 31 -46 39
-51 40 -78 17 -11 -10 -18 -13 -14 -8 10 19 -10 37 -42 39 -31 1 -31 1 47 77
82 82 119 106 58 39z m370 15 c-17 -12 -18 -18 -8 -40 11 -23 10 -25 -6 -16
-9 5 -26 19 -37 32 -11 12 -14 19 -8 15 7 -4 25 0 40 8 35 19 44 20 19 1z
m-506 -50 c-13 -14 -28 -25 -33 -25 -6 0 0 11 13 25 13 14 28 25 33 25 6 0 0
-11 -13 -25z m295 -45 c3 -6 -1 -7 -9 -4 -18 7 -21 14 -7 14 6 0 13 -4 16 -10z
m-109 -230 c15 -18 8 -28 -8 -12 -19 19 -41 13 -67 -19 -27 -34 -21 -50 12
-30 l22 13 -22 -22 -22 -23 -28 29 c-15 16 -37 41 -48 54 l-20 25 27 -24 27
-24 10 25 c5 14 7 35 4 47 -6 25 4 27 29 4 28 -25 34 -6 7 25 -13 15 -4 9 21
-13 24 -22 50 -47 56 -55z m-136 -95 c13 -14 21 -25 18 -25 -2 0 -15 11 -28
25 -13 14 -21 25 -18 25 2 0 15 -11 28 -25z m562 -32 c-32 -48 -33 -52 -14
-71 19 -19 18 -20 -14 -58 -38 -44 -41 -52 -18 -61 9 -3 29 7 51 28 55 52 35
20 -36 -59 -36 -39 -69 -68 -74 -65 -5 3 -4 8 2 12 15 10 -30 76 -50 75 -10
-1 -14 11 -16 39 -1 28 2 36 8 26 8 -12 10 -12 18 0 7 11 13 12 23 3 11 -9 24
6 67 74 29 46 57 84 62 84 6 0 2 -12 -9 -27z m-195 -167 c0 -8 -9 -17 -19 -19
-22 -6 -23 -3 -2 17 19 20 21 20 21 2z m319 -97 c-25 -27 -35 -46 -31 -57 6
-16 5 -16 -10 -1 -15 15 -13 20 26 63 23 25 44 44 47 41 3 -2 -12 -23 -32 -46z"/>
<path d="M1496 1844 c-19 -19 -20 -26 -4 -42 16 -16 33 -15 52 4 12 12 13 20
6 35 -13 23 -33 24 -54 3z"/>
<path d="M3257 1769 c-18 -25 -11 -56 17 -71 11 -6 22 -12 22 -12 1 -1 11 8
23 18 25 23 27 49 5 70 -21 22 -50 20 -67 -5z"/>
<path d="M3145 1748 c-24 -13 -135 -126 -135 -137 0 -26 33 -13 79 31 28 28
54 49 56 46 3 -3 -56 -65 -130 -138 -74 -74 -135 -139 -135 -146 0 -6 7 -17
15 -24 13 -10 28 1 98 69 46 44 87 81 91 81 4 0 -30 -36 -74 -80 -80 -78 -96
-111 -60 -118 9 -1 71 52 141 120 135 132 197 187 112 97 -29 -30 -53 -60 -53
-66 0 -33 28 -19 91 43 87 86 88 101 16 172 -56 56 -81 66 -112 50z"/>
<path d="M1432 1719 c2 -6 8 -10 13 -10 5 0 11 4 13 10 2 6 -4 11 -13 11 -9 0
-15 -5 -13 -11z"/>
<path d="M1454 1699 c-10 -11 -17 -24 -14 -27 3 -3 -5 -6 -18 -7 -32 -2 -64
-38 -64 -69 0 -74 93 -91 128 -24 13 26 13 32 -1 60 -20 41 -19 45 5 23 16
-14 23 -16 32 -7 9 9 7 17 -8 33 -10 12 -18 24 -16 28 8 17 -27 9 -44 -10z"/>
<path d="M2814 1588 c3 -13 6 -28 6 -35 0 -7 10 -21 22 -32 17 -17 24 -18 37
-8 10 8 13 8 8 0 -10 -16 23 -47 36 -34 7 7 5 17 -8 31 -10 11 -15 20 -10 20
4 0 2 6 -4 13 -6 8 -7 18 -3 22 4 5 -1 5 -10 2 -11 -4 -17 -2 -15 6 1 6 -8 13
-20 15 -13 2 -23 8 -23 13 0 5 -5 9 -11 9 -7 0 -9 -9 -5 -22z"/>
<path d="M3896 1562 c-8 -8 -7 -25 2 -40 11 -17 42 -4 42 18 0 17 -33 34 -44
22z"/>
<path d="M3812 1527 c-12 -13 -22 -26 -22 -30 0 -13 23 -7 37 11 13 15 13 15
4 -4 -6 -12 -25 -34 -42 -48 -20 -17 -29 -32 -25 -42 5 -14 9 -14 24 -3 14 11
15 11 5 -1 -7 -8 -13 -18 -13 -22 0 -19 28 -4 74 40 28 26 42 37 32 25 -28
-34 -14 -49 17 -17 15 14 27 30 27 34 0 10 -78 80 -88 80 -5 0 -18 -10 -30
-23z"/>
<path d="M1274 1505 c-8 -19 3 -35 26 -35 19 0 30 17 23 38 -6 17 -42 15 -49
-3z"/>
<path d="M3169 1394 c-27 -33 24 -70 55 -39 12 12 13 21 6 36 -13 23 -43 25
-61 3z"/>
<path d="M1251 1381 c-25 -25 -17 -59 17 -68 52 -13 83 41 40 71 -29 20 -34
20 -57 -3z"/>
<path d="M3055 1360 c-34 -36 -23 -63 13 -30 11 11 24 20 28 20 4 0 -23 -28
-60 -63 -60 -54 -67 -64 -53 -75 13 -11 22 -7 59 24 l43 38 -37 -40 c-21 -22
-38 -45 -38 -52 0 -21 36 -13 61 14 13 14 42 40 64 57 l40 31 -28 -31 c-20
-21 -25 -33 -17 -38 12 -8 80 51 80 69 0 19 -89 106 -108 106 -10 0 -31 -14
-47 -30z"/>
<path d="M1103 1301 c-68 -44 -80 -58 -64 -74 8 -8 22 -2 53 20 46 32 76 50
67 40 -3 -4 -42 -33 -87 -66 -81 -58 -82 -60 -61 -75 l22 -15 -52 -63 c-51
-63 -61 -96 -27 -90 16 3 18 -2 14 -32 -3 -25 0 -36 9 -36 7 0 13 -4 13 -10 0
-6 -9 -6 -22 -1 -34 12 -60 5 -84 -23 -26 -29 -22 -69 10 -94 32 -25 41 -43
19 -35 -13 4 -10 -3 11 -25 15 -17 26 -34 23 -39 -3 -4 20 -46 50 -92 48 -73
53 -86 40 -98 -11 -11 -20 -12 -34 -5 -24 13 -65 -6 -103 -48 -15 -17 -30 -27
-33 -23 -4 3 2 13 14 21 25 17 22 59 -6 78 -17 11 -24 11 -45 -1 -47 -27 -53
-28 -71 -17 -24 16 -29 15 -29 -3 0 -8 5 -15 10 -15 6 0 10 -9 10 -19 0 -22
47 -64 62 -55 5 3 15 0 23 -6 11 -9 12 -17 4 -31 -16 -31 -4 -52 76 -127 41
-38 75 -72 75 -75 0 -3 -8 -4 -17 -3 -10 0 -19 -7 -21 -16 -2 -13 3 -18 17
-18 12 0 21 6 21 13 0 9 2 9 8 0 8 -13 30 -17 70 -15 13 1 20 7 17 12 -13 20
12 9 36 -16 46 -49 97 -84 113 -78 28 11 18 37 -36 93 -55 57 -42 52 25 -9 44
-40 55 -42 71 -17 9 15 -8 36 -129 152 -77 74 -135 134 -128 135 6 0 13 -3 15
-7 2 -5 20 -23 41 -41 32 -27 42 -31 53 -21 13 10 7 20 -37 65 -50 51 -56 74
-20 74 41 0 43 25 7 79 -51 76 -26 62 32 -19 43 -58 50 -75 47 -104 -5 -36 24
-86 49 -86 13 0 14 -41 2 -71 -11 -26 14 -34 30 -10 8 12 22 21 30 21 8 0 14
5 14 11 0 5 4 7 10 4 8 -5 23 30 25 57 0 3 3 10 8 14 12 12 8 24 -8 24 -8 0
-15 -4 -15 -10 0 -5 -11 -10 -25 -10 -15 0 -25 5 -24 13 4 30 -2 58 -11 52
-11 -7 -14 28 -4 38 6 6 23 -6 108 -73 10 -8 34 -28 52 -43 23 -20 40 -27 54
-22 35 11 22 42 -37 92 -32 26 -64 54 -71 60 -7 7 -23 19 -34 28 -12 8 -19 18
-15 21 6 6 54 -26 89 -58 7 -7 34 -30 60 -51 40 -32 51 -36 68 -27 28 15 25
34 -13 67 -41 36 -53 63 -29 63 12 0 7 9 -18 31 -19 17 -28 29 -19 26 9 -3 21
-1 27 5 6 6 16 7 24 2 22 -15 79 -13 85 2 3 8 12 14 20 14 8 0 12 4 9 9 -3 5
1 11 9 15 20 7 19 -3 -2 -26 -13 -15 -14 -21 -4 -31 10 -9 20 -4 48 28 20 22
32 33 28 25 -4 -8 -17 -25 -28 -37 -12 -14 -17 -28 -13 -40 7 -16 11 -14 39
17 18 20 44 51 59 70 l28 35 -17 -32 c-24 -43 -7 -55 23 -18 32 40 30 58 -8
87 -74 56 -73 56 -126 -7 -18 -21 -29 -25 -49 -20 -15 3 -31 1 -41 -7 -12 -10
-14 -10 -8 0 13 22 -20 13 -47 -12 -18 -16 -25 -31 -21 -43 5 -15 4 -15 -5 -3
-8 12 -13 12 -23 2 -13 -13 -29 -16 -26 -4 6 18 -40 53 -96 73 -65 24 -100 46
-55 36 15 -4 33 -1 45 7 18 14 18 15 0 35 -11 12 -25 21 -32 21 -27 0 -84 36
-84 53 0 18 -25 23 -35 7 -4 -6 -16 -8 -28 -4 -12 4 -37 6 -55 5 -35 -2 -56
24 -32 39 11 7 11 12 -1 26 -12 15 -12 16 0 9 14 -8 14 -7 -4 53 -7 19 40 82
60 82 7 0 18 -7 25 -15 11 -14 19 -2 53 80 22 52 41 94 43 92 3 -2 -5 -27 -17
-55 -23 -55 -20 -98 5 -71 19 19 66 133 66 158 0 25 -77 91 -105 91 -12 0 -49
-18 -82 -39z m-50 -235 c-10 -14 -24 -28 -31 -30 -7 -3 -1 10 14 29 30 40 46
40 17 1z m-63 -66 c0 -5 -5 -10 -11 -10 -5 0 -7 5 -4 10 3 6 8 10 11 10 2 0 4
-4 4 -10z m28 -162 c1 -23 -7 -42 -26 -65 -26 -30 -30 -32 -48 -18 -15 12 -16
14 -3 15 27 0 62 47 61 80 -1 41 13 30 16 -12z m142 -70 c0 -5 -9 -4 -20 2
-11 6 -20 12 -20 14 0 2 9 2 20 -1 11 -3 20 -9 20 -15z m550 -52 c0 -2 -8 -10
-17 -17 -16 -13 -17 -12 -4 4 13 16 21 21 21 13z m-731 -457 c24 -22 41 -42
39 -45 -3 -2 -26 16 -51 41 -26 25 -43 45 -38 45 4 0 27 -18 50 -41z m126 -19
c10 -11 15 -20 11 -20 -4 0 -16 9 -28 20 -12 11 -17 20 -11 20 5 0 18 -9 28
-20z"/>
<path d="M1349 1250 c-28 -25 -30 -30 -16 -36 9 -3 15 -9 12 -14 -2 -4 2 -16
10 -26 12 -17 10 -23 -28 -61 -25 -27 -35 -43 -26 -43 8 0 22 6 30 13 7 6 -4
-7 -25 -30 -37 -40 -40 -41 -52 -24 -8 10 -22 21 -33 24 -23 6 -80 -32 -74
-50 2 -6 0 -14 -6 -17 -6 -4 -8 -12 -5 -19 2 -7 -5 -22 -16 -34 -30 -33 -24
-50 7 -22 25 22 26 22 9 1 -11 -12 -16 -25 -12 -30 4 -4 18 6 31 22 13 16 28
25 34 22 6 -4 15 3 20 16 6 13 10 17 10 10 1 -10 6 -10 21 -2 16 8 18 8 14 -4
-3 -8 0 -17 6 -21 7 -4 38 20 77 61 37 38 59 60 50 48 -10 -11 -17 -24 -17
-27 0 -14 29 -6 39 11 11 19 14 18 85 -42 27 -23 52 -36 61 -32 28 11 19 26
-47 80 -27 21 -48 43 -48 48 0 7 33 -19 149 -118 2 -2 -3 -12 -13 -22 -9 -11
-15 -25 -13 -33 2 -8 2 -11 0 -6 -3 4 -11 7 -19 7 -12 0 -18 -11 -16 -31 1 -4
-10 -17 -23 -29 -33 -31 -35 -61 -2 -34 12 10 2 -4 -23 -31 -69 -75 -70 -76
-70 -83 0 -4 10 -13 21 -20 23 -15 22 -15 128 88 20 20 25 23 12 8 -36 -41
-16 -47 24 -8 36 35 43 58 24 77 -7 7 -4 12 10 16 16 4 27 -3 43 -26 12 -18
23 -34 24 -35 5 -8 75 20 90 35 14 14 12 19 -22 54 -21 22 -33 39 -26 39 7 0
12 -4 12 -9 0 -5 14 -18 32 -29 24 -15 36 -18 45 -10 29 24 23 30 -140 167
-48 41 -86 75 -84 78 7 6 37 -8 37 -18 0 -5 9 -9 20 -9 29 0 25 34 -6 58 -25
18 -26 20 -11 43 15 23 15 25 -4 37 -16 10 -20 10 -25 -3 -8 -21 -38 -19 -59
5 -27 30 -71 26 -107 -10 -34 -34 -43 -38 -30 -12 11 21 5 43 -16 60 -24 18
-38 15 -73 -18z m311 -34 c0 -2 -8 -10 -17 -17 -16 -13 -17 -12 -4 4 13 16 21
21 21 13z m-95 -36 c3 -5 1 -10 -4 -10 -6 0 -11 5 -11 10 0 6 2 10 4 10 3 0 8
-4 11 -10z m106 -186 c21 -24 22 -26 3 -16 -25 13 -50 42 -37 42 5 0 20 -12
34 -26z m-141 -238 c0 -2 -8 -10 -17 -17 -16 -13 -17 -12 -4 4 13 16 21 21 21
13z m-40 -40 c0 -2 -8 -10 -17 -17 -16 -13 -17 -12 -4 4 13 16 21 21 21 13z"/>
<path d="M3900 1135 c0 -9 5 -15 11 -13 6 2 11 8 11 13 0 5 -5 11 -11 13 -6 2
-11 -4 -11 -13z"/>
<path d="M1242 1063 c2 -10 10 -18 18 -18 22 0 18 29 -3 33 -14 3 -18 -1 -15
-15z"/>
<path d="M4376 1062 c-3 -6 -1 -14 5 -17 15 -10 25 3 12 16 -7 7 -13 7 -17 1z"/>
<path d="M843 986 c4 -10 7 -24 7 -31 0 -19 61 -48 74 -35 6 6 4 16 -6 27 -8
10 -13 24 -11 31 3 7 -4 12 -15 12 -11 0 -28 3 -38 7 -14 5 -16 3 -11 -11z"/>
<path d="M4422 974 c4 -21 22 -23 26 -1 2 10 -3 17 -13 17 -10 0 -15 -6 -13
-16z"/>
<path d="M1460 957 c0 -19 10 -27 25 -20 17 6 8 33 -11 33 -8 0 -14 -6 -14
-13z"/>
<path d="M4447 949 c-13 -18 -13 -24 0 -50 8 -16 21 -29 29 -29 8 0 14 -4 14
-10 0 -5 6 -7 14 -4 8 3 21 -4 29 -16 11 -16 21 -20 37 -15 l22 7 -25 26 c-13
15 -22 33 -20 39 3 7 -3 16 -12 19 -12 5 -13 9 -4 14 8 6 2 13 -19 24 -40 21
-48 20 -65 -5z"/>
<path d="M1392 928 c-24 -15 -30 -23 -21 -29 10 -6 9 -10 -4 -15 -11 -4 -16
-13 -12 -22 3 -8 -4 -25 -16 -39 -25 -26 -19 -43 8 -22 16 13 17 12 4 -4 -8
-9 -11 -20 -8 -24 4 -3 16 6 28 21 12 15 27 25 34 22 8 -2 16 2 19 10 3 9 10
13 15 10 8 -6 41 51 41 71 0 12 -33 43 -46 43 -5 0 -24 -10 -42 -22z"/>
<path d="M826 913 c-11 -12 -6 -33 8 -33 19 0 28 27 11 33 -7 3 -16 3 -19 0z"/>
<path d="M751 870 c-14 -12 -18 -20 -10 -20 10 -1 9 -4 -3 -14 -10 -7 -15 -16
-11 -20 4 -3 -4 -20 -17 -38 -17 -23 -19 -30 -7 -25 12 4 14 2 10 -10 -8 -21
16 -8 35 19 8 11 19 17 25 15 17 -5 54 32 62 60 4 18 1 29 -12 39 -25 18 -44
17 -72 -6z"/>
<path d="M4435 811 c-7 -12 12 -24 25 -16 11 7 4 25 -10 25 -5 0 -11 -4 -15
-9z"/>
<path d="M1735 780 c-3 -6 1 -13 9 -16 9 -3 16 -12 16 -19 0 -16 35 -29 50
-20 5 3 10 15 10 26 0 29 -70 53 -85 29z"/>
<path d="M790 735 c0 -9 5 -15 11 -13 6 2 11 8 11 13 0 5 -5 11 -11 13 -6 2
-11 -4 -11 -13z"/>
<path d="M810 710 c-10 -18 -7 -24 11 -22 4 1 6 -4 5 -11 0 -7 2 -12 5 -12 3
0 12 -5 20 -11 8 -6 24 -10 36 -9 12 1 20 -2 18 -6 -3 -4 1 -12 9 -18 11 -9
15 -8 20 5 4 11 -1 22 -14 31 -11 8 -18 19 -15 24 4 5 1 9 -4 9 -6 0 -11 6
-11 14 0 13 -28 26 -57 26 -7 0 -17 -9 -23 -20z"/>
<path d="M730 671 c0 -4 5 -22 11 -40 8 -22 16 -30 26 -27 8 3 11 1 8 -4 -3
-6 -1 -10 6 -10 7 0 23 -10 36 -22 20 -19 25 -20 33 -8 6 10 2 22 -14 40 -13
14 -22 30 -20 36 6 14 -41 38 -55 30 -6 -4 -11 -2 -11 3 0 6 -4 11 -10 11 -5
0 -10 -4 -10 -9z"/>
<path d="M1362 323 c-1 -20 -6 -41 -12 -47 -17 -17 -11 -29 8 -15 9 7 0 -5
-20 -27 -40 -42 -48 -60 -24 -51 11 4 13 1 10 -11 -3 -9 10 0 30 20 20 21 36
32 36 25 0 -6 12 0 25 16 13 15 22 34 19 41 -3 8 -1 17 5 21 17 10 13 27 -6
23 -10 -2 -28 7 -39 19 -12 13 -23 23 -26 23 -3 0 -5 -17 -6 -37z"/>
</g>
</svg>
