<svg version="1" xmlns="http://www.w3.org/2000/svg" width="93.333" height="93.333" viewBox="0 0 70.000000 70.000000"><path d="M17.8 7.4C9.7 10.3 4.2 16.2 3.3 22.9c-.7 5.2 1.1 9.4 5.5 13.1 3.2 2.7 3.5 3.1 2.4 5.5C10.6 42.9 9.6 44 9 44c-.5 0-1 .7-1 1.6 0 1.4.9 1.6 6 1.1 3.4-.3 7.5-1.4 9.6-2.6 2-1.2 5.3-2.1 7.7-2.1 16.7-.1 24.2-18.1 12.3-29.5-6.4-6.2-16.9-8.3-25.8-5.1zm17.9 5c2.8 1.4 6 3.7 7 5.2 2.3 3.5 2.2 10.4-.1 13.9-2.2 3.3-8.9 6.4-13.8 6.5-2.3 0-5.1 1-7.4 2.5-4.9 3.3-6.7 3.3-5.4 0 .8-2.1.5-2.8-2.6-5.1-10.6-8.2-7.7-19.7 6.1-24 6.1-1.9 10.5-1.6 16.2 1z"/><path d="M54.7 21.7c-.4.3-.7 1.5-.7 2.5 0 1.4.8 1.8 3.4 1.8 1.9 0 3.8.6 4.3 1.2.8 1.3.6 20.8-.2 21.6-.2.2-1.9.7-3.7 1.1-3.2.7-3.2.7-2.9 6l.3 5.4-5.6-4.7c-3-2.6-5.6-5.2-5.9-5.9-.2-.6-2.2-1-5-.9-6.3.4-13-1.5-12.3-3.4.7-1.9-1.8-1.8-3.4.1-1 1.2-1 1.8.1 3.2 2.7 3.7 4.4 4.3 11 4.3s6.9.1 12.6 4.7c9.8 8.1 9.1 7.7 10.8 6.3.9-.8 1.5-2.9 1.5-5.6 0-3.7.4-4.5 2.7-5.6 1.5-.7 3.3-2.4 4-3.8 1.6-3.2 1.7-21 .2-24.4-1.5-3.3-9.2-6-11.2-3.9z"/></svg>