<svg version="1" xmlns="http://www.w3.org/2000/svg" width="489.333" height="489.333" viewBox="0 0 367.000000 367.000000"><path d="M159.7 18.2c-9.4 2-18.2 9.3-22.6 18.7-5.2 11.3-2.6 26.4 6 35.3 4.3 4.3 11.3 8.5 16 9.3l3.6.7V98c0 10.8-.3 16-1.1 16.3-1 .3-17.9.2-19.8-.2-.5 0-.8-.9-.8-1.9 0-1.1-1.4-4.6-3.1-8-9-18.1-31.8-23.5-48.3-11.5-21.4 15.5-15 50.3 10.7 57.3 6.4 1.7 17 .8 22.8-1.9 8.3-3.9 15.4-12.8 17.6-22l.9-3.4 17.5.1 17.5.1L212.9 95l36.4-27.8h57.1c31.4 0 57.9-.1 58.9-.1 1.3-.1 1.7-1 1.7-4.1v-4H246.3l-23.9 18.3c-44.7 34.2-49.5 37.7-50.5 37.2-.5-.4-.9-7.6-.9-16.4V82.4l4.5-1.2c19.1-5.1 29.2-27.3 20.6-45.2-2.8-5.7-4.5-7.8-10.4-12.3-7-5.4-17-7.5-26-5.5z"/><path d="M260.5 86.9c-5.1 1.3-9.8 3.7-13.3 6.6-12.1 10.2-15.4 28.8-7.3 41.8l2 3.3-8.9 8.9-8.9 8.9-4.8-2.6c-25.7-14-55.5 11-46.1 38.7 2.5 7.4 6.3 12.3 13.1 16.8 16.6 10.9 38.5 4.5 47.1-13.7 1.4-3 2.6-6.4 2.6-7.4 0-1.9.8-2 28.2-1.8l28.2.1.7 3c1.9 9.3 8.5 17.5 17.6 22 9.7 4.8 22.7 3.9 31.8-2.1 8.6-5.6 14.8-17 14.6-26.9-.1-6.8-.6-9-3.6-15.1-4.8-9.7-14.1-16.1-25.6-17.3-16-1.7-29.7 7.6-34.4 23.4l-1.2 4-28.1.3-28 .2-.7-3.2c-.4-1.8-1.8-5.3-3.1-7.7-2.3-4.2-2.4-4.5-.7-6.4 4-4.6 15.8-15.7 16.6-15.7.5 0 2.1.8 3.5 1.9 6.3 4.5 18.7 5.4 27.6 2.1 14.5-5.5 23.2-20.7 20.4-35.9-2.2-12.2-12-23-23.3-25.7-3.9-1-13-1.2-16-.5z"/><path d="M24 150.9c-8.6 2.8-16.2 9-19.8 16.4-8.3 16.5-2 35.8 14.5 43.9 5.7 2.8 7.7 3.3 14.2 3.3 6.7 0 8.5-.4 14.4-3.3 7-3.5 12.9-9.6 15.6-16.1l1.3-3.1h67.6l3.3 3.7c3.4 4 19.4 21.5 24.4 26.7 1.7 1.8 7.3 7.9 12.5 13.6 5.2 5.8 10.4 11.4 11.5 12.6 2.3 2.4 9.7 10.6 13.5 14.8 2.5 2.7 2.5 3.1 2.6 20.2l.1 17.4-2.6.7c-15.1 3.7-25 15.7-25.6 31.1-.5 12.5 6.4 24.1 18 30 7.2 3.6 17.9 4.2 25.6 1.3 19.7-7.4 27.4-31.6 15.6-48.7-3.9-5.6-11.1-10.9-17.6-12.8l-4.6-1.3-.3-16.2c-.2-13.9 0-16.1 1.3-16.2h20.3l5.7.1 1.7 5.9c2.2 7.5 8.8 15 16.6 18.8 4.9 2.4 6.9 2.8 14.2 2.8 7.4 0 9.2-.4 14.3-2.9 9.7-5 15.9-13.4 17.5-24 2.2-14.1-4.7-27.7-17.4-34.1-7.5-3.8-18.2-4.4-26-1.4-9.4 3.5-17.2 12.1-19.5 21.3-.6 2.5-1.4 4.7-1.8 4.7-.3.1-7.1.2-14.9.3l-14.4.1-4.1-4.5c-2.3-2.5-8.5-9.2-13.7-14.9-5.2-5.7-10.8-11.8-12.5-13.5-1.6-1.8-7.3-7.9-12.5-13.7-5.2-5.7-12-13.1-15.1-16.4-3.2-3.3-7.3-7.8-9.2-9.9l-3.4-3.9h-34.7c-19 0-34.6-.3-34.7-.6-1.7-15-6.7-23.4-17.4-29.2-5.1-2.8-7.2-3.3-14-3.6-4.4-.1-9.1.1-10.5.6z"/></svg>