<svg id="svg" version="1.1" xmlns="http://www.w3.org/2000/svg" xmlns:xlink="http://www.w3.org/1999/xlink" width="400" height="309.6557514693535" viewBox="0, 0, 400,309.6557514693535"><g id="svgg"><path id="path0" d="M246.321 81.510 C 219.842 82.757,204.183 94.425,204.183 112.906 C 204.183 129.677,217.223 139.607,245.110 144.071 C 268.213 147.770,271.108 148.764,271.108 152.998 C 271.108 157.312,266.498 158.817,254.089 158.555 C 240.771 158.273,236.042 157.035,223.932 150.656 C 219.111 148.117,216.100 149.611,207.037 159.039 C 200.365 165.981,200.334 166.077,203.824 169.094 C 213.294 177.277,230.210 182.655,250.813 184.033 C 259.106 184.587,302.261 184.449,302.844 183.866 C 304.012 182.698,303.404 153.427,302.086 147.374 C 298.611 131.420,290.161 125.287,266.770 121.743 C 241.561 117.923,235.043 115.922,235.043 112.006 C 235.043 103.750,264.316 105.067,279.118 113.990 C 285.126 117.611,287.995 116.452,297.417 106.595 C 303.865 99.850,303.811 99.967,301.558 97.557 C 294.082 89.565,274.010 82.263,257.785 81.632 C 255.484 81.542,252.974 81.431,252.208 81.384 C 251.441 81.337,248.792 81.393,246.321 81.510 M91.547 84.092 C 90.833 85.181,91.050 133.565,91.786 137.425 C 96.809 163.774,115.709 181.624,141.131 184.030 C 148.379 184.716,190.344 184.449,191.283 183.711 L 192.099 183.069 192.094 177.437 C 192.084 167.227,190.103 162.748,184.353 159.935 C 181.219 158.402,180.239 158.327,163.165 158.322 C 154.454 158.319,146.023 158.179,144.429 158.011 C 132.349 156.738,122.802 147.726,119.793 134.754 C 118.887 130.846,118.668 126.269,118.668 111.270 C 118.668 92.665,118.337 90.881,114.201 87.162 C 110.602 83.926,108.306 83.346,99.090 83.346 L 92.036 83.346 91.547 84.092 " stroke="none" fill="#bbe39c" fill-rule="evenodd"></path><path id="path1" d="M108.133 7.756 C 103.392 8.854,101.488 9.357,99.559 10.024 C 96.968 10.918,91.032 14.153,89.019 15.768 C 86.550 17.748,81.794 22.430,81.117 23.548 C 80.756 24.144,80.080 25.050,79.615 25.562 C 78.846 26.407,76.220 31.175,76.220 31.726 C 76.220 31.854,76.016 32.162,75.766 32.411 C 75.188 32.990,73.679 37.748,72.927 41.363 C 72.368 44.051,72.347 47.406,72.347 134.005 L 72.347 223.857 73.063 227.111 C 73.788 230.406,75.399 235.445,75.830 235.766 C 75.959 235.862,76.657 237.126,77.381 238.575 C 80.011 243.841,89.775 254.067,92.173 254.067 C 92.274 254.067,92.648 254.338,93.004 254.669 C 93.360 255.001,95.062 255.853,96.787 256.562 C 98.511 257.272,100.271 258.030,100.697 258.246 C 101.123 258.463,102.796 258.970,104.415 259.374 L 107.359 260.108 198.451 260.108 L 289.543 260.108 292.390 259.429 C 293.955 259.056,295.977 258.413,296.882 258.000 C 297.788 257.588,298.877 257.143,299.303 257.012 C 300.221 256.730,304.347 254.693,304.570 254.412 C 304.655 254.305,305.771 253.530,307.049 252.691 C 308.327 251.853,309.861 250.659,310.457 250.039 C 311.053 249.418,311.820 248.712,312.161 248.468 C 312.502 248.224,313.476 247.188,314.326 246.166 C 315.176 245.143,316.033 244.167,316.231 243.997 C 316.627 243.655,319.752 238.689,319.752 238.401 C 319.752 238.302,319.951 238.022,320.194 237.779 C 320.813 237.160,322.484 232.728,323.283 229.589 C 323.651 228.141,324.046 226.807,324.159 226.625 C 324.945 225.369,325.019 217.358,325.019 133.830 C 325.019 48.498,324.956 42.177,324.090 41.053 C 323.959 40.883,323.753 40.256,323.632 39.659 C 322.940 36.230,321.060 31.141,319.922 29.616 C 319.530 29.090,318.982 28.172,318.704 27.576 C 316.682 23.242,308.863 15.637,303.831 13.111 C 302.619 12.503,301.556 11.895,301.470 11.761 C 301.181 11.311,296.694 9.685,293.881 9.009 C 289.818 8.035,289.588 7.976,289.078 7.784 C 288.337 7.506,109.335 7.478,108.133 7.756 M258.095 81.186 C 274.339 82.316,289.489 87.567,299.854 95.661 C 304.728 99.467,304.718 99.504,296.599 107.731 C 286.949 117.509,286.083 117.757,277.150 113.291 C 268.132 108.783,262.453 107.331,252.517 106.991 C 240.743 106.589,234.306 108.691,235.291 112.615 C 236.057 115.667,242.315 117.635,259.489 120.223 C 268.840 121.632,278.570 123.562,282.376 124.763 C 294.470 128.579,301.365 137.400,303.059 151.223 C 303.659 156.120,303.647 183.441,303.044 184.169 C 302.410 184.935,250.478 184.744,244.771 183.955 C 224.274 181.117,208.390 175.116,202.181 167.862 C 200.302 165.667,200.315 165.644,207.105 158.554 C 216.494 148.753,219.053 147.703,225.313 151.080 C 230.213 153.724,232.858 154.886,236.096 155.820 C 249.989 159.825,268.038 159.356,270.327 154.931 C 272.583 150.567,268.304 148.005,255.551 146.083 C 233.538 142.767,223.969 140.046,216.258 134.910 C 205.335 127.636,201.359 115.984,205.462 103.270 C 210.337 88.163,231.391 79.329,258.095 81.186 M108.753 83.733 C 113.537 85.335,116.478 88.145,118.100 92.667 C 118.806 94.633,118.816 94.865,119.002 113.091 C 119.106 123.230,119.278 131.805,119.385 132.146 C 119.492 132.486,119.813 133.741,120.098 134.934 C 122.380 144.477,129.169 152.807,137.208 155.928 C 141.934 157.763,142.043 157.772,162.045 157.996 C 182.323 158.224,182.132 158.205,185.670 160.279 C 190.416 163.060,192.059 167.054,192.326 176.452 C 192.502 182.637,192.215 184.157,190.803 184.511 C 188.825 185.007,139.906 184.483,137.151 183.936 C 112.539 179.054,96.495 162.809,91.663 137.878 C 90.991 134.409,90.970 133.658,90.864 109.450 L 90.755 84.585 91.561 83.779 L 92.366 82.973 99.863 83.120 C 105.391 83.228,107.725 83.389,108.753 83.733 " stroke="none" fill="#2464bc" fill-rule="evenodd"></path><path id="path2" d="M249.651 81.097 C 250.716 81.157,252.459 81.157,253.524 81.097 C 254.589 81.036,253.718 80.987,251.588 80.987 C 249.458 80.987,248.586 81.036,249.651 81.097 M243.148 81.397 C 243.534 81.471,244.092 81.468,244.388 81.390 C 244.684 81.313,244.369 81.252,243.687 81.256 C 243.005 81.259,242.763 81.322,243.148 81.397 M258.640 81.397 C 259.026 81.471,259.583 81.468,259.880 81.390 C 260.176 81.313,259.861 81.252,259.179 81.256 C 258.497 81.259,258.255 81.322,258.640 81.397 M211.912 93.184 L 210.844 94.345 212.006 93.278 C 213.088 92.284,213.311 92.022,213.074 92.022 C 213.022 92.022,212.499 92.545,211.912 93.184 M296.971 107.281 L 294.810 109.527 297.057 107.367 C 298.292 106.179,299.303 105.168,299.303 105.121 C 299.303 104.893,298.977 105.195,296.971 107.281 M90.878 130.596 C 90.880 131.619,90.938 132.000,91.007 131.443 C 91.076 130.886,91.074 130.049,91.004 129.584 C 90.933 129.118,90.877 129.574,90.878 130.596 M293.726 131.158 C 293.726 131.211,294.179 131.665,294.733 132.165 L 295.740 133.075 294.830 132.068 C 293.981 131.130,293.726 130.919,293.726 131.158 M211.929 131.468 C 211.929 131.521,212.382 131.974,212.936 132.475 L 213.943 133.385 213.033 132.378 C 212.184 131.439,211.929 131.229,211.929 131.468 M219.287 149.560 C 219.671 149.634,220.298 149.634,220.682 149.560 C 221.065 149.486,220.751 149.426,219.985 149.426 C 219.218 149.426,218.904 149.486,219.287 149.560 M210.837 154.686 L 208.366 157.242 210.922 154.771 C 212.328 153.412,213.478 152.261,213.478 152.215 C 213.478 151.989,213.132 152.312,210.837 154.686 M144.466 157.930 C 144.937 158.001,145.634 157.999,146.015 157.925 C 146.396 157.852,146.011 157.793,145.159 157.796 C 144.307 157.798,143.995 157.858,144.466 157.930 M303.472 170.875 C 303.472 177.692,303.513 180.436,303.563 176.974 C 303.613 173.512,303.613 167.935,303.563 164.580 C 303.513 161.226,303.472 164.059,303.472 170.875 M203.399 162.432 L 201.549 164.369 203.486 162.519 C 204.551 161.502,205.422 160.631,205.422 160.583 C 205.422 160.354,205.116 160.633,203.399 162.432 M107.049 168.552 C 107.714 169.233,108.329 169.791,108.414 169.791 C 108.499 169.791,108.024 169.233,107.359 168.552 C 106.693 167.870,106.079 167.312,105.994 167.312 C 105.908 167.312,106.383 167.870,107.049 168.552 M192.225 177.692 C 192.225 180.418,192.272 181.492,192.330 180.078 C 192.387 178.664,192.387 176.433,192.329 175.121 C 192.271 173.808,192.224 174.965,192.225 177.692 M242.370 183.637 C 242.668 183.715,243.156 183.715,243.455 183.637 C 243.753 183.559,243.509 183.496,242.912 183.496 C 242.316 183.496,242.072 183.559,242.370 183.637 M190.705 184.209 C 190.194 184.444,189.993 184.641,190.258 184.649 C 190.524 184.657,191.012 184.458,191.343 184.208 C 192.077 183.653,191.920 183.653,190.705 184.209 M244.849 183.947 C 245.147 184.025,245.635 184.025,245.933 183.947 C 246.232 183.869,245.988 183.805,245.391 183.805 C 244.795 183.805,244.551 183.869,244.849 183.947 M139.504 184.257 C 139.802 184.335,140.290 184.335,140.589 184.257 C 140.887 184.179,140.643 184.115,140.046 184.115 C 139.450 184.115,139.206 184.179,139.504 184.257 M248.261 184.266 C 248.732 184.337,249.430 184.335,249.811 184.261 C 250.192 184.188,249.806 184.130,248.954 184.132 C 248.102 184.134,247.790 184.194,248.261 184.266 M142.763 184.578 C 143.320 184.647,144.157 184.645,144.622 184.575 C 145.088 184.504,144.632 184.447,143.610 184.449 C 142.587 184.451,142.206 184.509,142.763 184.578 M252.905 184.579 C 253.544 184.646,254.589 184.646,255.229 184.579 C 255.868 184.512,255.345 184.457,254.067 184.457 C 252.789 184.457,252.266 184.512,252.905 184.579 " stroke="none" fill="#5991b0" fill-rule="evenodd"></path><path id="path3" d="M246.717 81.406 C 247.532 81.470,248.787 81.469,249.506 81.404 C 250.225 81.339,249.558 81.286,248.025 81.287 C 246.491 81.288,245.903 81.341,246.717 81.406 M252.905 81.405 C 253.714 81.469,255.039 81.469,255.848 81.405 C 256.658 81.341,255.995 81.289,254.376 81.289 C 252.758 81.289,252.095 81.341,252.905 81.405 M242.060 81.701 C 242.359 81.779,242.847 81.779,243.145 81.701 C 243.443 81.623,243.199 81.559,242.603 81.559 C 242.006 81.559,241.762 81.623,242.060 81.701 M259.721 81.701 C 260.019 81.779,260.507 81.779,260.806 81.701 C 261.104 81.623,260.860 81.559,260.263 81.559 C 259.667 81.559,259.423 81.623,259.721 81.701 M95.662 83.267 C 97.239 83.323,99.818 83.323,101.394 83.267 C 102.971 83.211,101.681 83.165,98.528 83.165 C 95.376 83.165,94.086 83.211,95.662 83.267 M90.929 106.739 C 90.929 118.327,90.967 123.022,91.015 117.173 C 91.062 111.324,91.062 101.843,91.015 96.104 C 90.967 90.365,90.929 95.151,90.929 106.739 M113.710 86.542 C 113.710 86.595,114.163 87.048,114.717 87.549 L 115.724 88.459 114.814 87.452 C 113.966 86.513,113.710 86.302,113.710 86.542 M211.608 93.803 L 209.915 95.585 211.696 93.891 C 213.351 92.318,213.620 92.022,213.390 92.022 C 213.341 92.022,212.540 92.823,211.608 93.803 M300.852 96.766 C 300.852 96.820,301.305 97.273,301.859 97.773 L 302.866 98.683 301.956 97.676 C 301.108 96.738,300.852 96.527,300.852 96.766 M118.811 112.781 C 118.811 121.046,118.851 124.427,118.900 120.294 C 118.949 116.162,118.949 109.400,118.900 105.267 C 118.851 101.135,118.811 104.516,118.811 112.781 M298.517 105.422 L 296.979 107.049 298.606 105.511 C 300.117 104.083,300.374 103.796,300.143 103.796 C 300.094 103.796,299.362 104.527,298.517 105.422 M248.268 106.813 C 249.255 106.875,250.788 106.874,251.677 106.812 C 252.565 106.750,251.758 106.699,249.884 106.700 C 248.009 106.701,247.282 106.752,248.268 106.813 M294.500 132.301 C 295.340 133.153,296.096 133.850,296.181 133.850 C 296.266 133.850,295.649 133.153,294.810 132.301 C 293.971 131.448,293.215 130.751,293.129 130.751 C 293.044 130.751,293.661 131.448,294.500 132.301 M127.808 149.961 C 128.647 150.813,129.404 151.510,129.489 151.510 C 129.574 151.510,128.957 150.813,128.118 149.961 C 127.278 149.109,126.522 148.412,126.437 148.412 C 126.352 148.412,126.969 149.109,127.808 149.961 M303.093 154.919 C 303.093 155.515,303.157 155.759,303.234 155.461 C 303.312 155.163,303.312 154.675,303.234 154.376 C 303.157 154.078,303.093 154.322,303.093 154.919 M209.283 156.545 L 207.746 158.172 209.373 156.634 C 210.884 155.206,211.141 154.919,210.910 154.919 C 210.861 154.919,210.129 155.651,209.283 156.545 M153.912 158.249 C 158.215 158.298,165.256 158.298,169.558 158.249 C 173.861 158.201,170.341 158.161,161.735 158.161 C 153.129 158.161,149.609 158.201,153.912 158.249 M105.035 166.158 C 105.035 166.205,106.115 167.285,107.436 168.559 L 109.837 170.875 107.521 168.474 C 105.370 166.244,105.035 165.931,105.035 166.158 M251.670 184.266 C 252.141 184.337,252.838 184.335,253.219 184.261 C 253.600 184.188,253.215 184.130,252.363 184.132 C 251.510 184.134,251.199 184.194,251.670 184.266 " stroke="none" fill="#74a4ac" fill-rule="evenodd"></path><path id="path4" d="M300.987 102.943 L 300.077 103.950 301.084 103.040 C 301.638 102.540,302.091 102.087,302.091 102.033 C 302.091 101.794,301.836 102.005,300.987 102.943 M293.249 110.999 L 291.712 112.626 293.338 111.088 C 294.850 109.660,295.107 109.373,294.876 109.373 C 294.827 109.373,294.095 110.105,293.249 110.999 M156.390 184.585 C 162.568 184.632,172.676 184.632,178.854 184.585 C 185.031 184.539,179.977 184.500,167.622 184.500 C 155.267 184.500,150.213 184.539,156.390 184.585 M267.622 184.585 C 273.970 184.632,284.357 184.632,290.705 184.585 C 297.053 184.539,291.859 184.500,279.163 184.500 C 266.468 184.500,261.274 184.539,267.622 184.585 " stroke="none" fill="#6ca4ac" fill-rule="evenodd"></path></g></svg>