<svg xmlns="http://www.w3.org/2000/svg" width="120" height="42" version="1">
<path d="M3.4.45l113.36.2c1.59 0 3-.23 3 3.16l-.14 37.33H.55V3.68C.55 2 .7.45 3.4.45z" fill="#aab2ab"/>
<path d="M117.75 0H2.25C1 0 0 1 0 2.25v39.24c0 .28.23.51.5.51h119a.5.5 0 0 0 .5-.5V2.24C120 1 119 0 117.75 0zM2.25 1.02h115.5c.68 0 1.23.55 1.23 1.23v27.22H36.43a17.76 17.76 0 0 1-31.1 0h-4.3V2.25c0-.68.55-1.23 1.23-1.23z"/>
<path d="M34.52 19.55a13.63 13.63 0 0 1-27.27.02v-.02a13.63 13.63 0 0 1 27.27-.02v.02z" fill="#fff"/>
<path d="M31.97 8.45a15.1 15.1 0 0 1 4.54 11.1c0 4.38-1.49 8.04-4.46 10.99a15.41 15.41 0 0 1-11.18 4.65 15 15 0 0 1-10.99-4.61 15.04 15.04 0 0 1-4.61-11.03 15.3 15.3 0 0 1 4.61-11.1c3-3.03 6.66-4.54 10.99-4.54a15.1 15.1 0 0 1 11.1 4.54zm-20.05 2.03a12.49 12.49 0 0 0-3.84 9.08 12.3 12.3 0 0 0 3.8 9 12.34 12.34 0 0 0 9.03 3.79c3.5 0 6.54-1.28 9.12-3.84a11.94 11.94 0 0 0 3.68-8.95c0-3.58-1.25-6.6-3.74-9.1a12.33 12.33 0 0 0-9.06-3.73 12.1 12.1 0 0 0-9 3.75zm6.72 7.55c-.39-.85-.97-1.28-1.75-1.28-1.38 0-2.07.93-2.07 2.79 0 1.85.69 2.78 2.07 2.78.9 0 1.56-.45 1.95-1.36l1.91 1.02a4.42 4.42 0 0 1-4.1 2.43c-1.4 0-2.53-.43-3.38-1.3A4.87 4.87 0 0 1 12 19.55a4.8 4.8 0 0 1 1.31-3.54 4.42 4.42 0 0 1 3.26-1.31c1.93 0 3.3.75 4.14 2.27l-2.07 1.06zm9 0c-.4-.85-.97-1.28-1.73-1.28-1.4 0-2.1.93-2.1 2.79 0 1.85.7 2.78 2.1 2.78.92 0 1.55-.45 1.92-1.36l1.95 1.02a4.42 4.42 0 0 1-4.09 2.43 4.5 4.5 0 0 1-3.37-1.3 4.88 4.88 0 0 1-1.27-3.56c0-1.49.43-2.67 1.29-3.54a4.39 4.39 0 0 1 3.27-1.31c1.92 0 3.3.75 4.13 2.27l-2.1 1.06z"/>
<g transform="matrix(.99378 0 0 .99367 -437.12 -74.44)"><circle cx="491.95" cy="90.23" r="10.81" fill="#fff"/><path d="M495.07 87.1a.75.75 0 0 0-.75-.75h-4.77a.75.75 0 0 0-.76.75v4.78h1.33v5.65h3.62v-5.65h1.33V87.1z"/><circle cx="491.93" cy="84.09" r="1.63"/><path clip-rule="evenodd" d="M491.92 78.33c-3.23 0-5.97 1.12-8.2 3.38a11.41 11.41 0 0 0-3.45 8.28c0 3.2 1.14 5.94 3.44 8.23a11.2 11.2 0 0 0 8.2 3.44c3.22 0 6-1.15 8.36-3.47a11.07 11.07 0 0 0 3.33-8.2c0-3.26-1.13-6.03-3.39-8.28a11.29 11.29 0 0 0-8.3-3.38zm.03 2.1c2.65 0 4.9.93 6.74 2.8a9.15 9.15 0 0 1 2.81 6.76 8.9 8.9 0 0 1-2.75 6.68 9.36 9.36 0 0 1-6.8 2.86 9.22 9.22 0 0 1-6.75-2.83 9.16 9.16 0 0 1-2.83-6.7 9.3 9.3 0 0 1 2.86-6.77 9.05 9.05 0 0 1 6.72-2.8z" fill-rule="evenodd"/></g>
<path d="M48.4 32.75c.32 0 .6.03.86.08.27.06.49.15.67.27.19.13.33.3.44.5.1.22.15.48.15.79 0 .33-.08.61-.23.83-.15.23-.37.4-.67.55.4.12.71.32.92.62.2.29.3.64.3 1.06a1.7 1.7 0 0 1-.72 1.47 2.3 2.3 0 0 1-.76.34c-.28.07-.57.1-.86.1h-3.22v-6.61h3.12zm-.19 2.68c.26 0 .48-.07.65-.19.16-.12.25-.32.25-.6a.77.77 0 0 0-.09-.38.63.63 0 0 0-.22-.23.95.95 0 0 0-.32-.12 2.17 2.17 0 0 0-.38-.03h-1.36v1.55h1.47zm.09 2.8c.14 0 .28 0 .4-.04a.91.91 0 0 0 .35-.13.7.7 0 0 0 .24-.27.91.91 0 0 0 .09-.43c0-.34-.1-.58-.29-.72-.2-.15-.45-.22-.76-.22h-1.6v1.82h1.57zm2.8-5.48h1.63l1.55 2.61 1.54-2.61h1.62l-2.46 4.08v2.54h-1.45v-2.58l-2.43-4.04zm47.34 4.98c.08.16.19.28.32.38.13.1.29.16.47.21a2.19 2.19 0 0 0 .97.04c.15-.02.29-.06.42-.13a.91.91 0 0 0 .32-.25.7.7 0 0 0 .13-.41.58.58 0 0 0-.17-.44c-.12-.11-.27-.2-.45-.28-.19-.07-.4-.14-.63-.2a16.84 16.84 0 0 1-1.44-.4 3.2 3.2 0 0 1-.63-.35 1.63 1.63 0 0 1-.45-.54 1.62 1.62 0 0 1-.17-.77c0-.34.08-.64.22-.89a2 2 0 0 1 .57-.62c.23-.17.5-.3.8-.38a4.19 4.19 0 0 1 1.89 0c.31.08.6.2.84.38.25.17.44.4.59.66.14.27.22.6.22.98h-1.42c0-.2-.05-.36-.12-.5a.82.82 0 0 0-.28-.3 1.17 1.17 0 0 0-.4-.16 2.45 2.45 0 0 0-.85 0 .93.93 0 0 0-.32.12.8.8 0 0 0-.23.24.6.6 0 0 0-.1.35c0 .13.03.23.08.31a.7.7 0 0 0 .3.23c.14.07.34.13.6.2a96.57 96.57 0 0 0 1.51.4c.22.06.44.16.65.3a2 2 0 0 1 .57.58 2.03 2.03 0 0 1 .06 1.76c-.12.26-.3.48-.53.67a2.5 2.5 0 0 1-.86.44 4.2 4.2 0 0 1-2.25.02 2.66 2.66 0 0 1-.91-.42 2.1 2.1 0 0 1-.63-.74c-.15-.3-.23-.64-.22-1.05h1.41c0 .22.04.4.12.56zm8.21-4.98l2.47 6.62h-1.5l-.51-1.48h-2.48l-.52 1.48h-1.46l2.5-6.62h1.5zm.08 4.06l-.84-2.43h-.01l-.87 2.43h1.72zm-34.21-4.06l2.76 4.44h.02v-4.44h1.37v6.62H75.2l-2.76-4.43h-.01v4.43h-1.37v-6.62h1.45zm9.68 1.76a1.44 1.44 0 0 0-.77-.61 1.7 1.7 0 0 0-1.35.1c-.23.13-.41.3-.56.51-.14.21-.24.46-.3.73a3.61 3.61 0 0 0 0 1.65c.06.27.16.5.3.71a1.58 1.58 0 0 0 1.4.7c.44 0 .79-.14 1.04-.41.25-.27.4-.63.46-1.08h1.4c-.03.42-.13.8-.28 1.13a2.6 2.6 0 0 1-1.5 1.4 3.65 3.65 0 0 1-2.49-.09 2.94 2.94 0 0 1-1.67-1.82 4.14 4.14 0 0 1 0-2.73c.15-.42.36-.79.64-1.1.28-.32.62-.57 1.03-.75a3.52 3.52 0 0 1 2.4-.11 2.69 2.69 0 0 1 1.51 1.21c.16.3.27.64.31 1.02h-1.4a1.2 1.2 0 0 0-.17-.46zm32.38-19.53a10.58 10.58 0 1 1-21.17.02v-.02a10.59 10.59 0 0 1 21.17-.02v.02z" fill="#fff"/>
<path d="M103.92 3.39c-3.21 0-5.93 1.12-8.16 3.36a11.34 11.34 0 0 0-3.42 8.23c0 3.17 1.14 5.9 3.42 8.18 2.29 2.28 5 3.42 8.16 3.42 3.2 0 5.96-1.15 8.3-3.45a11 11 0 0 0 3.31-8.15c0-3.25-1.12-5.99-3.37-8.23a11.2 11.2 0 0 0-8.24-3.36zm.03 2.08c2.63 0 4.86.93 6.7 2.79a9.1 9.1 0 0 1 2.79 6.72c0 2.67-.91 4.88-2.73 6.64a9.3 9.3 0 0 1-6.76 2.84c-2.6 0-4.83-.94-6.7-2.81a9.1 9.1 0 0 1-2.82-6.67c0-2.57.94-4.81 2.84-6.72a8.99 8.99 0 0 1 6.68-2.79z"/>
<path d="M98.78 13.34c.46-2.91 2.51-4.47 5.09-4.47 3.7 0 5.96 2.68 5.96 6.27 0 3.49-2.4 6.2-6.02 6.2a4.97 4.97 0 0 1-5.12-4.53h2.92c.09 1.56 1.1 2.1 2.55 2.1 1.65 0 2.72-1.52 2.72-3.86 0-2.46-.93-3.76-2.66-3.76-1.28 0-2.38.47-2.6 2.05h.84l-2.3 2.3-2.3-2.3h.92z"/>
<path d="M88.63 14.98a10.79 10.79 0 0 1-21.58.02v-.02a10.79 10.79 0 0 1 21.58-.01v.01z" fill="#fff"/>
<path d="M77.83 3.39c3.25 0 6 1.12 8.24 3.36a11.19 11.19 0 0 1 3.37 8.23 11 11 0 0 1-3.31 8.15 11.46 11.46 0 0 1-8.3 3.45c-3.16 0-5.88-1.14-8.16-3.42-2.28-2.28-3.42-5.01-3.42-8.18s1.14-5.91 3.42-8.23a11.06 11.06 0 0 1 8.16-3.36zm-8.97 8.48a9.26 9.26 0 0 0-.52 3.11c0 2.57.93 4.8 2.81 6.67a9.16 9.16 0 0 0 6.7 2.8 9.3 9.3 0 0 0 6.77-2.83 8.95 8.95 0 0 0 1.58-2.03l-4.37-1.95c-.3 1.48-1.6 2.47-3.19 2.58v1.8h-1.33v-1.8a5.51 5.51 0 0 1-3.52-1.38l1.6-1.61a3.5 3.5 0 0 0 2.58 1.04c.69 0 1.44-.26 1.44-1.15a.87.87 0 0 0-.31-.7l-1.1-.49-1.39-.61-1.83-.82-5.92-2.63zm9-6.4c-2.64 0-4.86.93-6.68 2.79-.5.5-.93 1.02-1.3 1.56l4.44 1.98c.4-1.23 1.57-1.98 2.99-2.06v-1.8h1.33v1.8a5 5 0 0 1 2.91 1.06l-1.52 1.57a3.53 3.53 0 0 0-1.98-.68c-.58 0-1.4.17-1.4.9 0 .1.05.2.11.3l1.49.65 1 .45 1.86.83 5.94 2.64c.2-.78.3-1.6.3-2.48a9.1 9.1 0 0 0-2.79-6.72 9.09 9.09 0 0 0-6.7-2.79z"/>
</svg>
