<svg version="1" xmlns="http://www.w3.org/2000/svg" width="210.667" height="210.667" viewBox="0 0 158.000000 158.000000"><path d="M105 22.2l-5.5 2.2 4.4 1.3c4.2 1.2 4.8 1.1 10-1.3 5.2-2.5 5.4-2.7 3.1-3.4-4-1.3-6.2-1-12 1.2zM124.6 28.3l-4.8 2 5.3 2.7 5.3 2.7 4.5-2c6.7-2.9 6.9-3.4 2-5.6-5.4-2.5-6.1-2.5-12.3.2zM82.8 32.7c-1.6 1-2.8 2.1-2.8 2.5 0 .4 1.8 1.3 4 1.9 3.5 1.1 4.5 1 7.6-.7 3.5-1.9 4.9-3.2 4.2-3.9-.2-.2-2.6-.6-5.3-1-3.8-.4-5.7-.1-7.7 1.2zM106.5 37.4c-1.1.7-3.5 2.2-5.4 3.4l-3.4 2 5.2 2.6 5.1 2.7 4.8-2.7c7.7-4.4 7.7-4.5 3.4-6.4-6.1-2.7-7.5-3-9.7-1.6zM67.3 43.3C65 45 63.1 46.8 63 47.2c0 .3 1.6 1.6 3.5 2.8l3.4 2.1 5-3.8c2.7-2.1 5-4.1 5-4.5.1-.9-5.3-3.8-7.1-3.8-.7 0-3.2 1.5-5.5 3.3zM125.5 47.4c-1.1.7-3.5 2.2-5.4 3.3l-3.3 2 4.6 3.2 4.6 3.2 6.1-3.6 6-3.7-3.8-2.9c-4.2-3.1-5.8-3.4-8.8-1.5zM83.8 52.5C80.6 55 78 57.2 78 57.3c0 .2 2 1.8 4.4 3.6l4.5 3.1 6.5-5.2c3.7-2.9 6.6-5.5 6.6-5.8 0-.6-8.5-5-9.8-5-.4 0-3.3 2-6.4 4.5zM52 57.5L47.6 62l2.4 2.5c1.3 1.4 2.6 2.5 3 2.5.3 0 2.8-2.1 5.6-4.6l4.9-4.6-3-2.4C58.8 54.1 57.3 53 57 53c-.3 0-2.6 2-5 4.5zM102.1 63.3c-3.6 2.8-6.6 5.7-6.8 6.3-.2.6 1.5 2.5 3.7 4.3l4 3.2 7.5-6.1c4.1-3.4 7.5-6.4 7.5-6.8 0-.6-8.6-6.3-9.3-6.2-.1 0-3.1 2.4-6.6 5.3zM64.1 69.4l-5.3 5.4 3.9 4.2 4 4.3 6.2-6.4 6.2-6.4-3.8-3.2C73.2 65.5 71 64 70.5 64c-.6 0-3.5 2.4-6.4 5.4zM39.3 71.7c-4.4 5.7-4.5 5.9-2.8 10l1.6 3.8 3.5-4c5.5-6.3 5.6-6.8 3-10.4l-2.4-3.2-2.9 3.8zM123.4 73.2c-1.6 1.2-3.1 2.3-3.3 2.5-.3.2 1.1 1.6 3 3.2l3.4 2.9-4.5 4.6-4.4 4.6 3.3 3.4 3.3 3.4 8.4-7.1c4.7-3.9 8.3-7.4 8.2-7.8-.5-1.2-12.8-11.9-13.7-11.9-.5 0-2.1 1-3.7 2.2zM79.5 84l-7 7 4 4 4 4 7.5-7.5 7.4-7.4-4-3.5c-2.1-1.9-4.1-3.5-4.4-3.6-.3 0-3.7 3.2-7.5 7zM47.6 88c-5.2 6.6-5.3 7.4-.7 14.3l1.8 2.8 5.2-6.5c5.7-7.2 5.8-8 1.3-13.4l-2.8-3.4-4.8 6.2zM26.5 90.4c-1.6 3-1.7 3.9-.6 7.6l1.3 4.2 2.5-3.7c2.2-3.3 2.4-4 1.2-6.8-1.9-4.9-2.4-5-4.4-1.3zM98.6 94l-3 3 3.7 3.8 3.7 3.8-4.5 4.4c-2.5 2.4-4.5 4.9-4.5 5.5 0 .6 1.5 2.5 3.3 4.2l3.2 3.1 8.5-9 8.4-9-6.9-6.4c-3.9-3.5-7.4-6.3-8-6.3-.5 0-2.3 1.3-3.9 2.9zM59.7 106.6l-5.7 7.6 3.1 4.4c1.6 2.4 3.1 4.4 3.3 4.4.2 0 3.1-3.4 6.5-7.5l6.2-7.6-3.7-4.4c-2-2.5-3.7-4.5-3.8-4.5-.1 0-2.7 3.4-5.9 7.6zM16.8 108.4c-1.6 3.2-1.4 12.6.1 12.6 1.8 0 4.1-7.3 3.5-11.1-.9-5.2-1.7-5.5-3.6-1.5zM33.5 109l-2.7 4.2 2.2 5.4c1.2 3 2.5 5.4 2.9 5.4.3 0 1.9-2.1 3.5-4.6l2.9-4.6-2.3-4.1c-3.4-6.2-3.6-6.3-6.5-1.7zM121.2 114.3l-3.2 3.3 3.2 3.2 3.2 3.2-5.8 5.9-5.8 5.9 3.3 4.1c1.8 2.3 3.6 4 4 3.9.4-.2 4.4-4.5 8.9-9.6l8.1-9.2-6.2-7c-3.4-3.9-6.3-7-6.3-7-.1 0-1.6 1.5-3.4 3.3zM75.1 119.1l-2.3 3 2.8 4 2.7 4-3.6 3.7c-2.1 2.1-3.7 4.2-3.7 4.6 0 1.3 6.2 8.7 7 8.4.4-.2 3.8-4 7.5-8.6l6.8-8.3-6.4-6.7c-3.5-3.7-6.8-6.8-7.4-6.9-.5-.1-2.1 1.1-3.4 2.8zM44.1 129c-1.7 2.8-3.1 5.4-3.1 5.8 0 1.1 4.4 9.2 5 9.2.3-.1 2.4-2.8 4.7-6.2l4.1-6.1-3.1-3.9c-1.7-2.1-3.4-3.8-3.8-3.8-.4 0-2.1 2.3-3.8 5zM22.8 130.3c-2.2 5.3-2.2 7.2.1 12.2l1.8 4 2.8-5.6 2.8-5.6-2.8-4.6c-1.5-2.6-2.8-4.7-2.8-4.7-.1 0-1 1.9-1.9 4.3z"/></svg>